<?xml version="1.0" encoding="utf-8"?>
<!-- Generator: Adobe Illustrator 22.0.1, SVG Export Plug-In . SVG Version: 6.00 Build 0)  -->
<svg version="1.1" id="Layer_1" xmlns="http://www.w3.org/2000/svg" xmlns:xlink="http://www.w3.org/1999/xlink" x="0px" y="0px"
	 viewBox="0 0 36 36" style="enable-background:new 0 0 36 36;" xml:space="preserve">
<style type="text/css">
	.st0{clip-path:url(#SVGID_2_);}
	.st1{clip-path:url(#SVGID_4_);fill:#FFFFFF;}
	.st2{clip-path:url(#SVGID_6_);}
	.st3{clip-path:url(#SVGID_8_);fill:#FFFFFF;}
	.st4{clip-path:url(#SVGID_10_);}
	.st5{clip-path:url(#SVGID_12_);fill:#FFFFFF;}
	.st6{clip-path:url(#SVGID_14_);}
	.st7{clip-path:url(#SVGID_16_);fill:#FFFFFF;}
	.st8{clip-path:url(#SVGID_18_);}
	.st9{clip-path:url(#SVGID_20_);fill:#FFFFFF;}
	.st10{clip-path:url(#SVGID_22_);}
	.st11{clip-path:url(#SVGID_24_);fill:#FFFFFF;}
	.st12{clip-path:url(#SVGID_26_);}
	.st13{clip-path:url(#SVGID_28_);fill:#FFFFFF;}
	.st14{clip-path:url(#SVGID_30_);}
	.st15{clip-path:url(#SVGID_32_);fill:#FFFFFF;}
	.st16{clip-path:url(#SVGID_34_);}
	.st17{clip-path:url(#SVGID_36_);fill:#FFFFFF;}
	.st18{clip-path:url(#SVGID_38_);}
	.st19{clip-path:url(#SVGID_40_);fill:#FFFFFF;}
	.st20{clip-path:url(#SVGID_42_);}
	.st21{clip-path:url(#SVGID_44_);fill:#FFFFFF;}
	.st22{clip-path:url(#SVGID_46_);}
	.st23{clip-path:url(#SVGID_48_);fill:#FFFFFF;}
	.st24{clip-path:url(#SVGID_50_);}
	.st25{clip-path:url(#SVGID_52_);fill:#FFFFFF;}
	.st26{clip-path:url(#SVGID_54_);}
	.st27{clip-path:url(#SVGID_56_);fill:#FFFFFF;}
	.st28{clip-path:url(#SVGID_58_);}
	.st29{clip-path:url(#SVGID_60_);fill:#FFFFFF;}
	.st30{clip-path:url(#SVGID_62_);}
	.st31{clip-path:url(#SVGID_64_);fill:#FFFFFF;}
	.st32{clip-path:url(#SVGID_66_);}
	.st33{clip-path:url(#SVGID_68_);fill:#FFFFFF;}
	.st34{clip-path:url(#SVGID_70_);}
	.st35{clip-path:url(#SVGID_72_);fill:#FFFFFF;}
	.st36{clip-path:url(#SVGID_74_);}
	.st37{clip-path:url(#SVGID_76_);fill:#FFFFFF;}
	.st38{clip-path:url(#SVGID_78_);}
	.st39{clip-path:url(#SVGID_80_);fill:#FFFFFF;}
	.st40{clip-path:url(#SVGID_82_);}
	.st41{clip-path:url(#SVGID_84_);fill:#FFFFFF;}
	.st42{clip-path:url(#SVGID_86_);}
	.st43{clip-path:url(#SVGID_88_);fill:#FFFFFF;}
	.st44{clip-path:url(#SVGID_90_);}
	.st45{clip-path:url(#SVGID_92_);fill:#FFFFFF;}
	.st46{enable-background:new    ;}
	.st47{clip-path:url(#SVGID_94_);}
	.st48{clip-path:url(#SVGID_96_);fill:#FFFFFF;}
	.st49{clip-path:url(#SVGID_98_);}
	.st50{clip-path:url(#SVGID_100_);fill:#FFFFFF;}
	.st51{clip-path:url(#SVGID_102_);}
	.st52{clip-path:url(#SVGID_104_);fill:#FFFFFF;}
	.st53{clip-path:url(#SVGID_106_);}
	.st54{clip-path:url(#SVGID_108_);fill:#FFFFFF;}
	.st55{clip-path:url(#SVGID_110_);}
	.st56{clip-path:url(#SVGID_112_);fill:#FFFFFF;}
	.st57{clip-path:url(#SVGID_114_);}
	.st58{clip-path:url(#SVGID_116_);fill:#FFFFFF;}
	.st59{clip-path:url(#SVGID_118_);}
	.st60{clip-path:url(#SVGID_120_);fill:#FFFFFF;}
	.st61{clip-path:url(#SVGID_122_);}
	.st62{clip-path:url(#SVGID_124_);fill:#FFFFFF;}
	.st63{clip-path:url(#SVGID_126_);}
	.st64{clip-path:url(#SVGID_128_);fill:#FFFFFF;}
	.st65{clip-path:url(#SVGID_130_);}
	.st66{clip-path:url(#SVGID_132_);fill:#FFFFFF;}
	.st67{clip-path:url(#SVGID_134_);}
	.st68{clip-path:url(#SVGID_136_);fill:#FFFFFF;}
	.st69{clip-path:url(#SVGID_138_);}
	.st70{clip-path:url(#SVGID_140_);fill:#FFFFFF;}
	.st71{clip-path:url(#SVGID_142_);}
	.st72{clip-path:url(#SVGID_144_);fill:#FFFFFF;}
	.st73{clip-path:url(#SVGID_146_);}
	.st74{clip-path:url(#SVGID_148_);fill:#FFFFFF;}
	.st75{clip-path:url(#SVGID_150_);}
	.st76{clip-path:url(#SVGID_152_);fill:#FFFFFF;}
	.st77{clip-path:url(#SVGID_154_);}
	.st78{clip-path:url(#SVGID_156_);fill:#FFFFFF;}
	.st79{clip-path:url(#SVGID_158_);}
	.st80{clip-path:url(#SVGID_160_);fill:#FFFFFF;}
	.st81{clip-path:url(#SVGID_162_);}
	.st82{clip-path:url(#SVGID_164_);fill:#FFFFFF;}
	.st83{clip-path:url(#SVGID_166_);}
	.st84{clip-path:url(#SVGID_168_);fill:#FFFFFF;}
	.st85{clip-path:url(#SVGID_170_);}
	.st86{clip-path:url(#SVGID_172_);fill:#FFFFFF;}
	.st87{clip-path:url(#SVGID_174_);}
	.st88{clip-path:url(#SVGID_176_);fill:#FFFFFF;}
	.st89{clip-path:url(#SVGID_178_);}
	.st90{clip-path:url(#SVGID_180_);fill:#FFFFFF;}
	.st91{clip-path:url(#SVGID_182_);}
	.st92{clip-path:url(#SVGID_184_);fill:#FFFFFF;}
</style>
<g>
	<g>
		<defs>
			<path id="SVGID_1_" d="M563.4,24.2c-0.2,0.2-0.3,0.5-0.3,0.7s0.1,0.5,0.3,0.7c0.4,0.4,1.1,0.4,1.5,0L578,12.6l13.1,13.1
				c0.4,0.4,1.1,0.4,1.5,0c0.4-0.4,0.4-1.1,0-1.5l-13.8-13.8c-0.4-0.4-1.1-0.4-1.5,0L563.4,24.2z"/>
		</defs>
		<use xlink:href="#SVGID_1_"  style="overflow:visible;fill:#FFFFFF;"/>
		<clipPath id="SVGID_2_">
			<use xlink:href="#SVGID_1_"  style="overflow:visible;"/>
		</clipPath>
		<g class="st0">
			<defs>
				<rect id="SVGID_3_" x="-784.1" y="-2258" width="1920" height="2700"/>
			</defs>
			<use xlink:href="#SVGID_3_"  style="overflow:visible;fill:#FFFFFF;"/>
			<clipPath id="SVGID_4_">
				<use xlink:href="#SVGID_3_"  style="overflow:visible;"/>
			</clipPath>
		</g>
	</g>
</g>
<g>
	<defs>
		<path id="SVGID_5_" d="M507.4,11.8c-0.2-0.2-0.3-0.5-0.3-0.7c0-0.3,0.1-0.5,0.3-0.7c0.4-0.4,1.1-0.4,1.5,0L522,23.4l13.1-13.1
			c0.4-0.4,1.1-0.4,1.5,0c0.4,0.4,0.4,1.1,0,1.5l-13.8,13.8c-0.4,0.4-1.1,0.4-1.5,0L507.4,11.8z"/>
	</defs>
	<use xlink:href="#SVGID_5_"  style="overflow:visible;fill:#FFFFFF;"/>
	<clipPath id="SVGID_6_">
		<use xlink:href="#SVGID_5_"  style="overflow:visible;"/>
	</clipPath>
	<g class="st2">
		<defs>
			<rect id="SVGID_7_" x="-790" y="-2258" width="1920" height="2700"/>
		</defs>
		<use xlink:href="#SVGID_7_"  style="overflow:visible;fill:#FFFFFF;"/>
		<clipPath id="SVGID_8_">
			<use xlink:href="#SVGID_7_"  style="overflow:visible;"/>
		</clipPath>
	</g>
</g>
<g>
	<g>
		<defs>
			<path id="SVGID_9_" d="M472.2,32.6c0.2,0.2,0.5,0.3,0.7,0.3c0.3,0,0.5-0.1,0.7-0.3c0.4-0.4,0.4-1.1,0-1.5L460.6,18l13.1-13.1
				c0.4-0.4,0.4-1.1,0-1.5c-0.4-0.4-1.1-0.4-1.5,0l-13.8,13.8c-0.4,0.4-0.4,1.1,0,1.5L472.2,32.6z"/>
		</defs>
		<use xlink:href="#SVGID_9_"  style="overflow:visible;fill:#FFFFFF;"/>
		<clipPath id="SVGID_10_">
			<use xlink:href="#SVGID_9_"  style="overflow:visible;"/>
		</clipPath>
		<g class="st4">
			<defs>
				<rect id="SVGID_11_" x="-802.9" y="-2258" width="1920" height="2700"/>
			</defs>
			<use xlink:href="#SVGID_11_"  style="overflow:visible;fill:#FFFFFF;"/>
			<clipPath id="SVGID_12_">
				<use xlink:href="#SVGID_11_"  style="overflow:visible;"/>
			</clipPath>
		</g>
	</g>
</g>
<g>
	<g>
		<defs>
			<path id="SVGID_13_" d="M403.8,32.6c-0.2,0.2-0.5,0.3-0.7,0.3c-0.3,0-0.5-0.1-0.7-0.3c-0.4-0.4-0.4-1.1,0-1.5L415.4,18L402.3,4.9
				c-0.4-0.4-0.4-1.1,0-1.5c0.4-0.4,1.1-0.4,1.5,0l13.8,13.8c0.4,0.4,0.4,1.1,0,1.5L403.8,32.6z"/>
		</defs>
		<use xlink:href="#SVGID_13_"  style="overflow:visible;fill:#FFFFFF;"/>
		<clipPath id="SVGID_14_">
			<use xlink:href="#SVGID_13_"  style="overflow:visible;"/>
		</clipPath>
		<g class="st6">
			<defs>
				<rect id="SVGID_15_" x="-821" y="-2258" width="1920" height="2700"/>
			</defs>
			<use xlink:href="#SVGID_15_"  style="overflow:visible;fill:#FFFFFF;"/>
			<clipPath id="SVGID_16_">
				<use xlink:href="#SVGID_15_"  style="overflow:visible;"/>
			</clipPath>
		</g>
	</g>
</g>
<g>
	<g>
		<defs>
			<path id="SVGID_17_" d="M363.4,27.4c-2.5,2.5-5.9,3.9-9.4,3.9c-3.5,0-6.9-1.4-9.4-3.9c-5.2-5.2-5.2-13.6,0-18.8
				c2.5-2.5,5.9-3.9,9.4-3.9c3.5,0,6.9,1.4,9.4,3.9C368.6,13.8,368.6,22.2,363.4,27.4z M364.6,7.4C361.8,4.6,358,3,354,3
				c-4,0-7.8,1.6-10.6,4.4S339,14,339,18s1.6,7.8,4.4,10.6S350,33,354,33c4,0,7.8-1.6,10.6-4.4S369,22,369,18S367.4,10.2,364.6,7.4z
				"/>
		</defs>
		<use xlink:href="#SVGID_17_"  style="overflow:visible;fill:#FFFFFF;"/>
		<clipPath id="SVGID_18_">
			<use xlink:href="#SVGID_17_"  style="overflow:visible;"/>
		</clipPath>
		<g class="st8">
			<defs>
				<rect id="SVGID_19_" x="-833.9" y="-2258" width="1920" height="2700"/>
			</defs>
			<use xlink:href="#SVGID_19_"  style="overflow:visible;fill:#FFFFFF;"/>
			<clipPath id="SVGID_20_">
				<use xlink:href="#SVGID_19_"  style="overflow:visible;"/>
			</clipPath>
		</g>
	</g>
	<g>
		<defs>
			<path id="SVGID_21_" d="M360.8,11.2c-0.3-0.3-0.9-0.3-1.2,0l-5.6,5.6l-5.6-5.6c-0.3-0.3-0.9-0.3-1.2,0c-0.3,0.3-0.3,0.9,0,1.2
				l5.6,5.6l-5.6,5.6c-0.3,0.3-0.3,0.9,0,1.2c0.2,0.2,0.4,0.3,0.6,0.3c0.2,0,0.4-0.1,0.6-0.3l5.6-5.6l5.6,5.6
				c0.2,0.2,0.4,0.3,0.6,0.3c0.2,0,0.4-0.1,0.6-0.3c0.3-0.3,0.3-0.9,0-1.2l-5.5-5.6l5.6-5.6C361.1,12.1,361.1,11.5,360.8,11.2z"/>
		</defs>
		<use xlink:href="#SVGID_21_"  style="overflow:visible;fill:#FFFFFF;"/>
		<clipPath id="SVGID_22_">
			<use xlink:href="#SVGID_21_"  style="overflow:visible;"/>
		</clipPath>
		<g class="st10">
			<defs>
				<rect id="SVGID_23_" x="-833.9" y="-2258" width="1920" height="2700"/>
			</defs>
			<use xlink:href="#SVGID_23_"  style="overflow:visible;fill:#FFFFFF;"/>
			<clipPath id="SVGID_24_">
				<use xlink:href="#SVGID_23_"  style="overflow:visible;"/>
			</clipPath>
		</g>
	</g>
</g>
<g>
	<g>
		<defs>
			<polygon id="SVGID_25_" points="301.7,13.2 301.8,15.3 309,15.3 309,30.8 287,30.8 287,15.3 294.2,15.3 294.2,13.1 284.9,13.1 
				284.9,33 311.1,33 311.1,13.1 			"/>
		</defs>
		<use xlink:href="#SVGID_25_"  style="overflow:visible;fill:#FFFFFF;"/>
		<clipPath id="SVGID_26_">
			<use xlink:href="#SVGID_25_"  style="overflow:visible;"/>
		</clipPath>
		<g class="st12">
			<defs>
				<rect id="SVGID_27_" x="-841" y="-2258" width="1920" height="2700"/>
			</defs>
			<use xlink:href="#SVGID_27_"  style="overflow:visible;fill:#FFFFFF;"/>
			<clipPath id="SVGID_28_">
				<use xlink:href="#SVGID_27_"  style="overflow:visible;"/>
			</clipPath>
		</g>
	</g>
	<g>
		<defs>
			<polygon id="SVGID_29_" points="296.9,22.1 296.9,3 299.1,3 299.1,22.1 301.6,19.6 303.1,21.2 298,26.3 292.8,21.2 294.4,19.6 
							"/>
		</defs>
		<use xlink:href="#SVGID_29_"  style="overflow:visible;fill:#FFFFFF;"/>
		<clipPath id="SVGID_30_">
			<use xlink:href="#SVGID_29_"  style="overflow:visible;"/>
		</clipPath>
		<g class="st14">
			<defs>
				<rect id="SVGID_31_" x="-841" y="-2258" width="1920" height="2700"/>
			</defs>
			<use xlink:href="#SVGID_31_"  style="overflow:visible;fill:#FFFFFF;"/>
			<clipPath id="SVGID_32_">
				<use xlink:href="#SVGID_31_"  style="overflow:visible;"/>
			</clipPath>
		</g>
	</g>
</g>
<g>
	<g>
		<defs>
			<polygon id="SVGID_33_" points="245.7,13.2 245.8,15.3 253,15.3 253,30.8 231,30.8 231,15.3 238.2,15.3 238.2,13.1 228.9,13.1 
				228.9,33 255.1,33 255.1,13.1 			"/>
		</defs>
		<use xlink:href="#SVGID_33_"  style="overflow:visible;fill:#FFFFFF;"/>
		<clipPath id="SVGID_34_">
			<use xlink:href="#SVGID_33_"  style="overflow:visible;"/>
		</clipPath>
		<g class="st16">
			<defs>
				<rect id="SVGID_35_" x="-850" y="-2258" width="1920" height="2700"/>
			</defs>
			<use xlink:href="#SVGID_35_"  style="overflow:visible;fill:#FFFFFF;"/>
			<clipPath id="SVGID_36_">
				<use xlink:href="#SVGID_35_"  style="overflow:visible;"/>
			</clipPath>
		</g>
	</g>
	<g>
		<defs>
			<polygon id="SVGID_37_" points="240.9,7.2 240.9,26.3 243.1,26.3 243.1,7.2 245.6,9.7 247.1,8.2 242,3 236.8,8.2 238.4,9.7 			
				"/>
		</defs>
		<use xlink:href="#SVGID_37_"  style="overflow:visible;fill:#FFFFFF;"/>
		<clipPath id="SVGID_38_">
			<use xlink:href="#SVGID_37_"  style="overflow:visible;"/>
		</clipPath>
		<g class="st18">
			<defs>
				<rect id="SVGID_39_" x="-850" y="-2258" width="1920" height="2700"/>
			</defs>
			<use xlink:href="#SVGID_39_"  style="overflow:visible;fill:#FFFFFF;"/>
			<clipPath id="SVGID_40_">
				<use xlink:href="#SVGID_39_"  style="overflow:visible;"/>
			</clipPath>
		</g>
	</g>
</g>
<g>
	<g>
		<defs>
			<path id="SVGID_41_" d="M198.1,12.7l-6.9-6.9c0.9-0.7,2-1.1,3.1-1.1c1.3,0,2.5,0.5,3.5,1.4c0.9,0.9,1.4,2.2,1.4,3.5
				C199.3,10.8,198.9,11.9,198.1,12.7z M181.3,29.6l-2.8-2.8l15.6-15.6l2.8,2.8L181.3,29.6z M190,7.1l2.9,2.9l-15.6,15.6l-2.9-2.9
				L190,7.1z M199,5c-2.6-2.6-6.8-2.6-9.4,0l-17.1,17.1c-0.1,0.1-0.2,0.3-0.2,0.5L171,32c0,0.3,0.1,0.5,0.2,0.7
				c0.2,0.2,0.4,0.3,0.6,0.3c0,0,0.1,0,0.1,0l5.7-0.8c0.5-0.1,0.8-0.5,0.7-1c-0.1-0.5-0.5-0.8-1-0.7l-4.5,0.6l0.9-6.6l6.9,6.9
				c0.2,0.2,0.4,0.3,0.6,0.3c0.2,0,0.4-0.1,0.6-0.3L199,14.3c1.3-1.3,1.9-2.9,1.9-4.7C201,7.9,200.3,6.2,199,5z"/>
		</defs>
		<use xlink:href="#SVGID_41_"  style="overflow:visible;fill:#FFFFFF;"/>
		<clipPath id="SVGID_42_">
			<use xlink:href="#SVGID_41_"  style="overflow:visible;"/>
		</clipPath>
		<g class="st20">
			<defs>
				<rect id="SVGID_43_" x="-857.8" y="-2258" width="1920" height="2700"/>
			</defs>
			<use xlink:href="#SVGID_43_"  style="overflow:visible;fill:#FFFFFF;"/>
			<clipPath id="SVGID_44_">
				<use xlink:href="#SVGID_43_"  style="overflow:visible;"/>
			</clipPath>
		</g>
	</g>
</g>
<g>
	<g>
		<defs>
			<path id="SVGID_45_" d="M144.2,28.2l-6.9-6.9c-1,1.6-2.4,2.9-4,4l6.9,6.9c1.1,1.1,2.9,1.1,4,0C145.2,31.1,145.2,29.3,144.2,28.2z
				"/>
		</defs>
		<use xlink:href="#SVGID_45_"  style="overflow:visible;fill:#FFFFFF;"/>
		<clipPath id="SVGID_46_">
			<use xlink:href="#SVGID_45_"  style="overflow:visible;"/>
		</clipPath>
		<g class="st22">
			<defs>
				<rect id="SVGID_47_" x="-863.8" y="-2258" width="1920" height="2700"/>
			</defs>
			<use xlink:href="#SVGID_47_"  style="overflow:visible;fill:#FFFFFF;"/>
			<clipPath id="SVGID_48_">
				<use xlink:href="#SVGID_47_"  style="overflow:visible;"/>
			</clipPath>
		</g>
	</g>
	<g>
		<defs>
			<path id="SVGID_49_" d="M126.3,22.7c-4.6,0-8.4-3.8-8.4-8.4c0-4.6,3.8-8.4,8.4-8.4c4.6,0,8.4,3.8,8.4,8.4
				C134.7,18.9,130.9,22.7,126.3,22.7z M137.5,14.3c0-6.2-5-11.2-11.2-11.2c-6.2,0-11.2,5-11.2,11.2s5,11.2,11.2,11.2
				C132.5,25.5,137.5,20.5,137.5,14.3z"/>
		</defs>
		<use xlink:href="#SVGID_49_"  style="overflow:visible;fill:#FFFFFF;"/>
		<clipPath id="SVGID_50_">
			<use xlink:href="#SVGID_49_"  style="overflow:visible;"/>
		</clipPath>
		<g class="st24">
			<defs>
				<rect id="SVGID_51_" x="-863.8" y="-2258" width="1920" height="2700"/>
			</defs>
			<use xlink:href="#SVGID_51_"  style="overflow:visible;fill:#FFFFFF;"/>
			<clipPath id="SVGID_52_">
				<use xlink:href="#SVGID_51_"  style="overflow:visible;"/>
			</clipPath>
		</g>
	</g>
	<g>
		<defs>
			<path id="SVGID_53_" d="M119.7,14.3h1.9c0-2.6,2.1-4.7,4.7-4.7V7.7C122.6,7.7,119.7,10.6,119.7,14.3z"/>
		</defs>
		<use xlink:href="#SVGID_53_"  style="overflow:visible;fill:#FFFFFF;"/>
		<clipPath id="SVGID_54_">
			<use xlink:href="#SVGID_53_"  style="overflow:visible;"/>
		</clipPath>
		<g class="st26">
			<defs>
				<rect id="SVGID_55_" x="-863.8" y="-2258" width="1920" height="2700"/>
			</defs>
			<use xlink:href="#SVGID_55_"  style="overflow:visible;fill:#FFFFFF;"/>
			<clipPath id="SVGID_56_">
				<use xlink:href="#SVGID_55_"  style="overflow:visible;"/>
			</clipPath>
		</g>
	</g>
</g>
<g>
	<g>
		<defs>
			<path id="SVGID_57_" d="M89.3,10.8v14.5l-4.9-5v-4.4L89.3,10.8z M83,27.4H58.7V8.6H83V27.4z M83.3,7.1H58.4
				c-0.6,0-1.2,0.5-1.2,1.2v19.3c0,0.6,0.5,1.2,1.2,1.2h24.8c0.6,0,1.2-0.5,1.2-1.2v-5.6l4.3,4.3c0.2,0.2,0.5,0.3,0.8,0.3
				c0.1,0,0.3,0,0.5-0.1c0.4-0.2,0.7-0.6,0.7-1.1V10.4c0-0.5-0.3-0.9-0.7-1.1c-0.4-0.2-1-0.1-1.3,0.3l-4.3,4.3V8.3
				C84.4,7.7,83.9,7.1,83.3,7.1z"/>
		</defs>
		<use xlink:href="#SVGID_57_"  style="overflow:visible;fill:#FFFFFF;"/>
		<clipPath id="SVGID_58_">
			<use xlink:href="#SVGID_57_"  style="overflow:visible;"/>
		</clipPath>
		<g class="st28">
			<defs>
				<rect id="SVGID_59_" x="-867.6" y="-2257.9" width="1920" height="2700"/>
			</defs>
			<use xlink:href="#SVGID_59_"  style="overflow:visible;fill:#FFFFFF;"/>
			<clipPath id="SVGID_60_">
				<use xlink:href="#SVGID_59_"  style="overflow:visible;"/>
			</clipPath>
		</g>
	</g>
</g>
<g>
	<g>
		<defs>
			<path id="SVGID_61_" d="M11.1,10.4c0.4,0,0.7-0.3,0.8-0.7l0.3-1.2C12.6,7,14,5.9,15.5,5.9h4.9c1.6,0,2.9,1.1,3.3,2.6L24,9.7
				c0.1,0.4,0.4,0.7,0.8,0.7H31c1.2,0,2.2,1,2.2,2.2v15c0,1.4-1.1,2.4-2.4,2.4H5.1c-1.4,0-2.4-1.1-2.4-2.4v-15c0-1.2,1-2.2,2.2-2.2
				H11.1z M1,12.6v15c0,2.3,1.9,4.1,4.1,4.1h25.7c2.3,0,4.1-1.9,4.1-4.1v-15c0-2.2-1.8-3.9-3.9-3.9h-5.5l-0.1-0.6
				c-0.5-2.3-2.6-3.9-4.9-3.9h-4.9c-2.4,0-4.4,1.6-4.9,3.9l-0.1,0.6H4.9C2.8,8.7,1,10.5,1,12.6z"/>
		</defs>
		<use xlink:href="#SVGID_61_"  style="overflow:visible;fill:#FFFFFF;"/>
		<clipPath id="SVGID_62_">
			<use xlink:href="#SVGID_61_"  style="overflow:visible;"/>
		</clipPath>
		<g class="st30">
			<defs>
				<rect id="SVGID_63_" x="-869.8" y="-2257.8" width="1920" height="2700"/>
			</defs>
			<use xlink:href="#SVGID_63_"  style="overflow:visible;fill:#FFFFFF;"/>
			<clipPath id="SVGID_64_">
				<use xlink:href="#SVGID_63_"  style="overflow:visible;"/>
			</clipPath>
			<rect x="-4" y="-0.8" class="st31" width="44" height="37.6"/>
		</g>
	</g>
	<g>
		<defs>
			<circle id="SVGID_65_" cx="6.8" cy="14" r="1.1"/>
		</defs>
		<use xlink:href="#SVGID_65_"  style="overflow:visible;fill:#FFFFFF;"/>
		<clipPath id="SVGID_66_">
			<use xlink:href="#SVGID_65_"  style="overflow:visible;"/>
		</clipPath>
		<g class="st32">
			<defs>
				<rect id="SVGID_67_" x="-869.8" y="-2257.8" width="1920" height="2700"/>
			</defs>
			<use xlink:href="#SVGID_67_"  style="overflow:visible;fill:#FFFFFF;"/>
			<clipPath id="SVGID_68_">
				<use xlink:href="#SVGID_67_"  style="overflow:visible;"/>
			</clipPath>
			<rect x="0.6" y="7.9" class="st33" width="12.3" height="12.3"/>
		</g>
	</g>
	<g>
		<defs>
			<path id="SVGID_69_" d="M18,14.9c3,0,5.4,2.4,5.4,5.4S21,25.7,18,25.7c-3,0-5.4-2.4-5.4-5.4S15,14.9,18,14.9z M18,27.4
				c3.9,0,7.1-3.2,7.1-7.1c0-3.9-3.2-7.1-7.1-7.1c-3.9,0-7.1,3.2-7.1,7.1C10.9,24.2,14.1,27.4,18,27.4z"/>
		</defs>
		<use xlink:href="#SVGID_69_"  style="overflow:visible;fill:#FFFFFF;"/>
		<clipPath id="SVGID_70_">
			<use xlink:href="#SVGID_69_"  style="overflow:visible;"/>
		</clipPath>
		<g class="st34">
			<defs>
				<rect id="SVGID_71_" x="-869.8" y="-2257.8" width="1920" height="2700"/>
			</defs>
			<use xlink:href="#SVGID_71_"  style="overflow:visible;fill:#FFFFFF;"/>
			<clipPath id="SVGID_72_">
				<use xlink:href="#SVGID_71_"  style="overflow:visible;"/>
			</clipPath>
			<rect x="5.9" y="8.2" class="st35" width="24.3" height="24.3"/>
		</g>
	</g>
</g>
<g>
	<g>
		<defs>
			<path id="SVGID_73_" d="M-47.3,31.3c1.4-2.1,3.4-3.7,5.8-4.5c0.4-0.1,0.6-0.4,0.6-0.8v-3.2c0-0.2-0.1-0.5-0.3-0.6
				c-0.2-0.2-0.4-0.3-0.6-0.2c-2.5,0-4-0.5-4.8-1c0.1-0.1,0.1-0.1,0.2-0.2c1.2-1.3,1.8-3.8,1.8-7.4c-0.2-6.7,2.7-7.7,3.9-8.2l0,0
				c0.7-0.3,1.4-0.4,2-0.4c1.6,0,2.5,0.9,2.5,1c0.2,0.2,0.5,0.3,0.7,0.3c0.1,0,0.3,0,0.4,0c0.9,0,1.6,0.3,2.2,0.9
				c1.2,1.3,1.7,4.1,1.3,7.7c-0.4,3.6,0.8,5.4,1.7,6.3c-1.3,0.7-3.2,1-4.6,1c-0.1,0-0.1,0-0.1,0c-0.2,0-0.5,0.1-0.6,0.2
				c-0.2,0.2-0.3,0.4-0.3,0.6V26c0,0.4,0.2,0.7,0.6,0.8c2.4,0.8,4.5,2.4,5.8,4.4L-47.3,31.3L-47.3,31.3z M-26.5,31.8
				c-1.4-2.9-3.9-5.2-7-6.3v-1.8c1.5-0.1,4.3-0.5,6-2.2c0.2-0.2,0.3-0.5,0.2-0.8c-0.1-0.3-0.3-0.5-0.6-0.6c0,0-2.2-0.8-1.8-5.2
				c0.2-1.9,0.2-3.6-0.1-5.1c-0.3-1.7-0.9-3-1.7-3.9c-0.9-1-2.1-1.5-3.5-1.5c-0.1,0-0.1,0-0.2,0C-35.6,3.8-36.8,3-38.6,3
				c-0.8,0-1.7,0.2-2.6,0.5l0,0c-0.7,0.3-2,0.8-3.1,2.3c-1.3,1.7-1.9,4.3-1.8,7.6c0.1,3.3-0.5,4.9-0.9,5.7c-0.4,0.6-0.8,0.8-0.8,0.8
				c-0.3,0-0.6,0.1-0.7,0.4c-0.2,0.3-0.1,0.6,0.1,0.9c0.1,0.1,0.5,0.7,1.6,1.3c1.2,0.7,2.8,1,4.6,1.1v1.7c-3,1.1-5.5,3.4-6.9,6.4
				c-0.1,0.3-0.1,0.6,0,0.8c0.2,0.2,0.4,0.4,0.7,0.4h21.4c0.3,0,0.6-0.2,0.7-0.4C-26.4,32.3-26.4,32-26.5,31.8z"/>
		</defs>
		<use xlink:href="#SVGID_73_"  style="overflow:visible;fill:#FFFFFF;"/>
		<clipPath id="SVGID_74_">
			<use xlink:href="#SVGID_73_"  style="overflow:visible;"/>
		</clipPath>
		<g class="st36">
			<defs>
				<rect id="SVGID_75_" x="-876.4" y="-2258" width="1920" height="2700"/>
			</defs>
			<use xlink:href="#SVGID_75_"  style="overflow:visible;fill:#FFFFFF;"/>
			<clipPath id="SVGID_76_">
				<use xlink:href="#SVGID_75_"  style="overflow:visible;"/>
			</clipPath>
		</g>
	</g>
</g>
<g>
	<g>
		<defs>
			<path id="SVGID_77_" d="M-95.5,31c0,0.5-0.4,0.8-0.8,0.8h-2.2c-0.5,0-0.8-0.4-0.8-0.8V12.9h3.9L-95.5,31L-95.5,31z M-98.7,11.1
				h2.5v0.6h-2.5V11.1z M-94.9,11.7L-94.9,11.7l-0.1-1.2c0-0.3-0.3-0.6-0.6-0.6h-3.7c-0.3,0-0.6,0.3-0.6,0.6v1.2h-0.1
				c-0.3,0-0.6,0.3-0.6,0.6V31c0,1.1,0.9,2,2,2h2.2c1.1,0,2-0.9,2-2V12.3C-94.3,11.9-94.6,11.7-94.9,11.7z"/>
		</defs>
		<use xlink:href="#SVGID_77_"  style="overflow:visible;fill:#FFFFFF;"/>
		<clipPath id="SVGID_78_">
			<use xlink:href="#SVGID_77_"  style="overflow:visible;"/>
		</clipPath>
		<g class="st38">
			<defs>
				<rect id="SVGID_79_" x="-893.4" y="-2258" width="1920" height="2700"/>
			</defs>
			<use xlink:href="#SVGID_79_"  style="overflow:visible;fill:#FFFFFF;"/>
			<clipPath id="SVGID_80_">
				<use xlink:href="#SVGID_79_"  style="overflow:visible;"/>
			</clipPath>
		</g>
	</g>
	<g>
		<defs>
			<path id="SVGID_81_" d="M-88.6,31c0,0.5-0.4,0.8-0.8,0.8h-1.1c-0.5,0-0.8-0.4-0.8-0.8v-8.1h0.1h2.6h0.1L-88.6,31L-88.6,31z
				 M-90.7,20.8h1.4v0.8h-1.4V20.8z M-88,21.6L-88,21.6l-0.1-1.4c0-0.3-0.3-0.6-0.6-0.6h-0.7v-6.3h0c0.3,0,0.6-0.3,0.6-0.6
				c0-0.3-0.3-0.6-0.6-0.6h0v-0.2h0.1c0.3,0,0.6-0.3,0.6-0.6c0-0.3-0.3-0.6-0.6-0.6h-0.1v-0.2h0.4c0.3,0,0.6-0.3,0.6-0.6
				c0-0.3-0.3-0.6-0.6-0.6h-0.4V9.1h0.7c0.3,0,0.6-0.3,0.6-0.6s-0.3-0.6-0.6-0.6h-0.7V7.7h0.4c0.3,0,0.6-0.3,0.6-0.6
				c0-0.3-0.3-0.6-0.6-0.6h-0.4V6.3h0.1c0.3,0,0.6-0.3,0.6-0.6c0-0.3-0.3-0.6-0.6-0.6h-0.1V4.9h0c0.3,0,0.6-0.3,0.6-0.6
				s-0.3-0.6-0.6-0.6h0V3.6c0-0.3-0.3-0.6-0.6-0.6s-0.6,0.3-0.6,0.6v0.1h0c-0.3,0-0.6,0.3-0.6,0.6s0.3,0.6,0.6,0.6h0v0.2h-0.1
				c-0.3,0-0.6,0.3-0.6,0.6c0,0.3,0.3,0.6,0.6,0.6h0.1v0.2H-91c-0.3,0-0.6,0.3-0.6,0.6c0,0.3,0.3,0.6,0.6,0.6h0.4v0.2h-0.7
				c-0.3,0-0.6,0.3-0.6,0.6s0.3,0.6,0.6,0.6h0.7v0.2H-91c-0.3,0-0.6,0.3-0.6,0.6c0,0.3,0.3,0.6,0.6,0.6h0.4v0.2h-0.1
				c-0.3,0-0.6,0.3-0.6,0.6c0,0.3,0.3,0.6,0.6,0.6h0.1v0.2h0c-0.3,0-0.6,0.3-0.6,0.6s0.3,0.6,0.6,0.6h0v6.3h-0.7
				c-0.3,0-0.6,0.3-0.6,0.6v1.4H-92c-0.3,0-0.6,0.3-0.6,0.6V31c0,1.1,0.9,2,2,2h1.1c1.1,0,2-0.9,2-2v-8.7
				C-87.4,21.9-87.7,21.6-88,21.6z"/>
		</defs>
		<use xlink:href="#SVGID_81_"  style="overflow:visible;fill:#FFFFFF;"/>
		<clipPath id="SVGID_82_">
			<use xlink:href="#SVGID_81_"  style="overflow:visible;"/>
		</clipPath>
		<g class="st40">
			<defs>
				<rect id="SVGID_83_" x="-893.4" y="-2258" width="1920" height="2700"/>
			</defs>
			<use xlink:href="#SVGID_83_"  style="overflow:visible;fill:#FFFFFF;"/>
			<clipPath id="SVGID_84_">
				<use xlink:href="#SVGID_83_"  style="overflow:visible;"/>
			</clipPath>
		</g>
	</g>
</g>
<g>
	<g>
		<defs>
			<path id="SVGID_85_" d="M-140.9,30.7c0,0.5-0.4,1-1,1h-5c-0.5,0-1-0.4-1-1V21h7L-140.9,30.7L-140.9,30.7z M-146.4,19.2h4.1v0.5
				h-4.1V19.2z M-140.2,19.7h-0.8v-1.1c0-0.4-0.3-0.7-0.7-0.7h-5.4c-0.4,0-0.7,0.3-0.7,0.7v1.1h-0.8c-0.4,0-0.7,0.3-0.7,0.7v10.3
				c0,1.3,1,2.3,2.3,2.3h5c1.3,0,2.3-1,2.3-2.3V20.4C-139.6,20-139.9,19.7-140.2,19.7z"/>
		</defs>
		<use xlink:href="#SVGID_85_"  style="overflow:visible;fill:#FFFFFF;"/>
		<clipPath id="SVGID_86_">
			<use xlink:href="#SVGID_85_"  style="overflow:visible;"/>
		</clipPath>
		<g class="st42">
			<defs>
				<rect id="SVGID_87_" x="-912.2" y="-2258" width="1920" height="2700"/>
			</defs>
			<use xlink:href="#SVGID_87_"  style="overflow:visible;fill:#FFFFFF;"/>
			<clipPath id="SVGID_88_">
				<use xlink:href="#SVGID_87_"  style="overflow:visible;"/>
			</clipPath>
		</g>
	</g>
	<g>
		<defs>
			<path id="SVGID_89_" d="M-152.1,30.7c0,0.5-0.4,1-1,1h-5c-0.5,0-1-0.4-1-1v-8.1h7L-152.1,30.7L-152.1,30.7z M-157.6,12.2h4.1v9.1
				h-4.1V12.2z M-156.9,6.9c0.8-1.3,1.7-2.4,2-2.6c0.3,0.1,0.5,1.1,0.5,1.7v4.8h-2.6V6.9z M-151.5,21.3h-0.8v-9.7
				c0-0.4-0.3-0.7-0.7-0.7h-0.1V6.1c0,0,0-0.7-0.2-1.4c-0.4-1.5-1.2-1.7-1.7-1.7c-0.6,0-1.3,0.5-2.2,1.8c-0.6,0.8-1,1.6-1,1.6
				c-0.1,0.1-0.1,0.2-0.1,0.3v4.1h-0.1c-0.4,0-0.7,0.3-0.7,0.7v9.7h-0.8c-0.4,0-0.7,0.3-0.7,0.7v8.8c0,1.3,1,2.3,2.3,2.3h5
				c1.3,0,2.3-1,2.3-2.3v-8.8C-150.8,21.5-151.1,21.3-151.5,21.3z"/>
		</defs>
		<use xlink:href="#SVGID_89_"  style="overflow:visible;fill:#FFFFFF;"/>
		<clipPath id="SVGID_90_">
			<use xlink:href="#SVGID_89_"  style="overflow:visible;"/>
		</clipPath>
		<g class="st44">
			<defs>
				<rect id="SVGID_91_" x="-912.2" y="-2258" width="1920" height="2700"/>
			</defs>
			<use xlink:href="#SVGID_91_"  style="overflow:visible;fill:#FFFFFF;"/>
			<clipPath id="SVGID_92_">
				<use xlink:href="#SVGID_91_"  style="overflow:visible;"/>
			</clipPath>
		</g>
	</g>
</g>
<g>
	<g>
		<defs>
			<path id="SVGID_101_" d="M-260.7,16.7C-260.7,16.7-260.7,16.7-260.7,16.7C-260.7,16.7-260.7,16.7-260.7,16.7
				C-260.7,16.7-260.7,16.7-260.7,16.7c-0.1-0.1-0.3-0.2-0.5-0.2s-0.4,0.1-0.5,0.2c-0.3,0.3-0.3,0.8,0,1.1c0.1,0.1,0.3,0.2,0.5,0.2
				c0.2,0,0.4-0.1,0.5-0.2c0.1-0.1,0.2-0.3,0.2-0.5C-260.5,17-260.6,16.9-260.7,16.7L-260.7,16.7z"/>
		</defs>
		<use xlink:href="#SVGID_101_"  style="overflow:visible;fill:#FFFFFF;"/>
		<clipPath id="SVGID_94_">
			<use xlink:href="#SVGID_101_"  style="overflow:visible;"/>
		</clipPath>
		<g class="st47">
			<defs>
				<rect id="SVGID_103_" x="-932.7" y="-2258" width="1920" height="2700"/>
			</defs>
			<use xlink:href="#SVGID_103_"  style="overflow:visible;fill:#FFFFFF;"/>
			<clipPath id="SVGID_96_">
				<use xlink:href="#SVGID_103_"  style="overflow:visible;"/>
			</clipPath>
		</g>
	</g>
	<g>
		<defs>
			<path id="SVGID_105_" d="M-251.2,10.1C-251.2,10.1-251.2,10.1-251.2,10.1C-251.2,10.1-251.2,10.1-251.2,10.1l-6.5,6.5
				c0,0,0,0,0,0c0,0,0,0,0,0l-2.2,2.2c0,0,0,0,0,0c0,0,0,0,0,0l-1.3,1.3c-0.1,0.1-0.3,0.2-0.4,0.2c-0.1,0-0.1,0-0.2,0
				c-0.1,0-0.1-0.1-0.2-0.1c0,0,0,0-0.1,0l-2-2c0,0,0,0,0-0.1c0-0.1-0.1-0.1-0.1-0.2c0-0.1,0-0.1,0-0.2c0-0.2,0.1-0.3,0.2-0.4
				l11.2-11.2c0.2-0.2,0.6-0.2,0.8,0l2,2c0.2,0.2,0.2,0.6,0,0.8L-251.2,10.1z M-273.6,31.2c-0.4,0.4-1.1,0.4-1.6,0
				c-0.2-0.2-0.3-0.5-0.3-0.8s0.1-0.6,0.3-0.8l10.4-10.4l1.6,1.6L-273.6,31.2z M-247.3,13l-2.4-2.4l0.8-0.8c0.8-0.8,0.8-2.1,0-2.8
				l-2-2c-0.8-0.8-2.1-0.8-2.8,0l-0.8,0.8l-2.5-2.5c-0.3-0.3-0.7-0.3-1,0c-0.3,0.3-0.3,0.7,0,1l2.5,2.5l-1.2,1.2l-2.5-2.5
				c-0.3-0.3-0.7-0.3-1,0c-0.3,0.3-0.3,0.7,0,1l2.5,2.5l-1.2,1.2l-2.5-2.5c-0.3-0.3-0.7-0.3-1,0c-0.3,0.3-0.3,0.7,0,1l2.5,2.5
				l-1.2,1.2l-2.5-2.5c-0.3-0.3-0.7-0.3-1,0c-0.3,0.3-0.3,0.7,0,1l2.5,2.5l-1.2,1.2l-2.5-2.5c-0.3-0.3-0.7-0.3-1,0
				c-0.3,0.3-0.3,0.7,0,1l2.5,2.5l-0.8,0.8c-0.4,0.4-0.6,0.9-0.6,1.4c0,0.1,0,0.3,0,0.4l-10.7,10.7c-0.5,0.5-0.7,1.1-0.7,1.8
				c0,0.7,0.3,1.3,0.7,1.8c0.5,0.5,1.1,0.7,1.8,0.7c0.7,0,1.3-0.2,1.8-0.7l10.7-10.7c0.6,0.1,1.3,0,1.8-0.5l0.8-0.8l2.4,2.4
				c0.3,0.3,0.7,0.3,1,0c0.3-0.3,0.3-0.7,0-1l-2.4-2.4l1.2-1.2l2.4,2.4c0.3,0.3,0.7,0.3,1,0c0.3-0.3,0.3-0.7,0-1l-2.4-2.4l1.2-1.2
				l2.4,2.4c0.3,0.3,0.7,0.3,1,0c0.3-0.3,0.3-0.7,0-1l-2.4-2.4l1.2-1.2l2.4,2.4c0.3,0.3,0.7,0.3,1,0c0.3-0.3,0.3-0.7,0-1l-2.4-2.4
				l1.2-1.2l2.4,2.4c0.3,0.3,0.7,0.3,1,0C-247,13.7-247,13.2-247.3,13z"/>
		</defs>
		<use xlink:href="#SVGID_105_"  style="overflow:visible;fill:#FFFFFF;"/>
		<clipPath id="SVGID_98_">
			<use xlink:href="#SVGID_105_"  style="overflow:visible;"/>
		</clipPath>
		<g class="st49">
			<defs>
				<rect id="SVGID_107_" x="-932.7" y="-2258" width="1920" height="2700"/>
			</defs>
			<use xlink:href="#SVGID_107_"  style="overflow:visible;fill:#FFFFFF;"/>
			<clipPath id="SVGID_100_">
				<use xlink:href="#SVGID_107_"  style="overflow:visible;"/>
			</clipPath>
		</g>
	</g>
	<g>
		<defs>
			<path id="SVGID_109_" d="M-254.8,10c-0.2,0-0.4,0.1-0.5,0.2c-0.3,0.3-0.3,0.8,0,1.1c0.1,0.1,0.3,0.2,0.5,0.2
				c0.2,0,0.4-0.1,0.5-0.2c0.1-0.1,0.2-0.3,0.2-0.5c0-0.2-0.1-0.4-0.2-0.5C-254.4,10.1-254.6,10-254.8,10z"/>
		</defs>
		<use xlink:href="#SVGID_109_"  style="overflow:visible;fill:#FFFFFF;"/>
		<clipPath id="SVGID_102_">
			<use xlink:href="#SVGID_109_"  style="overflow:visible;"/>
		</clipPath>
		<g class="st51">
			<defs>
				<rect id="SVGID_111_" x="-932.7" y="-2258" width="1920" height="2700"/>
			</defs>
			<use xlink:href="#SVGID_111_"  style="overflow:visible;fill:#FFFFFF;"/>
			<clipPath id="SVGID_104_">
				<use xlink:href="#SVGID_111_"  style="overflow:visible;"/>
			</clipPath>
		</g>
	</g>
	<g>
		<defs>
			<path id="SVGID_113_" d="M-258.6,14.6C-258.6,14.6-258.6,14.6-258.6,14.6C-258.6,14.6-258.6,14.6-258.6,14.6L-258.6,14.6
				c-0.1-0.1-0.3-0.2-0.5-0.2s-0.4,0.1-0.5,0.2c-0.3,0.3-0.3,0.8,0,1.1c0.1,0.1,0.3,0.2,0.5,0.2c0.2,0,0.4-0.1,0.5-0.2
				c0.1-0.1,0.2-0.3,0.2-0.5C-258.3,14.9-258.4,14.7-258.6,14.6L-258.6,14.6z"/>
		</defs>
		<use xlink:href="#SVGID_113_"  style="overflow:visible;fill:#FFFFFF;"/>
		<clipPath id="SVGID_106_">
			<use xlink:href="#SVGID_113_"  style="overflow:visible;"/>
		</clipPath>
		<g class="st53">
			<defs>
				<rect id="SVGID_115_" x="-932.7" y="-2258" width="1920" height="2700"/>
			</defs>
			<use xlink:href="#SVGID_115_"  style="overflow:visible;fill:#FFFFFF;"/>
			<clipPath id="SVGID_108_">
				<use xlink:href="#SVGID_115_"  style="overflow:visible;"/>
			</clipPath>
		</g>
	</g>
	<g>
		<defs>
			<path id="SVGID_117_" d="M-252.6,7.9C-252.6,7.9-252.6,7.9-252.6,7.9c-0.2,0-0.4,0.1-0.5,0.2c-0.3,0.3-0.3,0.8,0,1.1
				c0.1,0.1,0.3,0.2,0.5,0.2c0.2,0,0.4-0.1,0.5-0.2c0.1-0.1,0.2-0.3,0.2-0.5c0-0.2-0.1-0.4-0.2-0.5C-252.2,7.9-252.4,7.9-252.6,7.9z
				"/>
		</defs>
		<use xlink:href="#SVGID_117_"  style="overflow:visible;fill:#FFFFFF;"/>
		<clipPath id="SVGID_110_">
			<use xlink:href="#SVGID_117_"  style="overflow:visible;"/>
		</clipPath>
		<g class="st55">
			<defs>
				<rect id="SVGID_119_" x="-932.7" y="-2258" width="1920" height="2700"/>
			</defs>
			<use xlink:href="#SVGID_119_"  style="overflow:visible;fill:#FFFFFF;"/>
			<clipPath id="SVGID_112_">
				<use xlink:href="#SVGID_119_"  style="overflow:visible;"/>
			</clipPath>
		</g>
	</g>
	<g>
		<defs>
			<path id="SVGID_121_" d="M-256.4,12.4C-256.4,12.4-256.4,12.4-256.4,12.4C-256.4,12.4-256.4,12.4-256.4,12.4
				C-256.4,12.4-256.4,12.4-256.4,12.4c-0.1-0.1-0.3-0.2-0.5-0.2c-0.2,0-0.4,0.1-0.5,0.2c-0.3,0.3-0.3,0.8,0,1.1
				c0.1,0.1,0.3,0.2,0.5,0.2c0.2,0,0.4-0.1,0.5-0.2c0.1-0.1,0.2-0.3,0.2-0.5C-256.2,12.7-256.3,12.5-256.4,12.4L-256.4,12.4z"/>
		</defs>
		<use xlink:href="#SVGID_121_"  style="overflow:visible;fill:#FFFFFF;"/>
		<clipPath id="SVGID_114_">
			<use xlink:href="#SVGID_121_"  style="overflow:visible;"/>
		</clipPath>
		<g class="st57">
			<defs>
				<rect id="SVGID_123_" x="-932.7" y="-2258" width="1920" height="2700"/>
			</defs>
			<use xlink:href="#SVGID_123_"  style="overflow:visible;fill:#FFFFFF;"/>
			<clipPath id="SVGID_116_">
				<use xlink:href="#SVGID_123_"  style="overflow:visible;"/>
			</clipPath>
		</g>
	</g>
</g>
<g>
	<g>
		<defs>
			<path id="SVGID_129_" d="M-361.1,17.8L-374,30.6l-12.9-12.9c-1.4-1.4-2.2-3.3-2.2-5.3s0.8-3.9,2.2-5.3c1.4-1.4,3.3-2.2,5.3-2.2
				c2,0,3.9,0.8,5.3,2.2l1.6,1.6c0.4,0.4,1,0.4,1.4,0l1.6-1.6c1.4-1.4,3.3-2.2,5.3-2.2c2,0,3.9,0.8,5.3,2.2c1.4,1.4,2.2,3.3,2.2,5.3
				C-358.9,14.5-359.7,16.4-361.1,17.8z M-359.7,5.8c-1.8-1.8-4.1-2.8-6.7-2.8c-2.5,0-4.9,1-6.7,2.8l-0.9,0.9l-0.9-0.9
				c-1.8-1.8-4.2-2.8-6.7-2.8c-2.5,0-4.9,1-6.6,2.8c-1.8,1.8-2.8,4.1-2.8,6.7c0,2.5,1,4.9,2.8,6.7l13.5,13.5
				c0.2,0.2,0.4,0.3,0.7,0.3c0.2,0,0.5-0.1,0.7-0.3l13.6-13.5c1.8-1.8,2.8-4.1,2.8-6.7C-357,10-358,7.6-359.7,5.8z"/>
		</defs>
		<use xlink:href="#SVGID_129_"  style="overflow:visible;fill:#FFFFFF;"/>
		<clipPath id="SVGID_118_">
			<use xlink:href="#SVGID_129_"  style="overflow:visible;"/>
		</clipPath>
		<g class="st59">
			<defs>
				<rect id="SVGID_131_" x="-943.1" y="-2258" width="1920" height="2700"/>
			</defs>
			<use xlink:href="#SVGID_131_"  style="overflow:visible;fill:#FFFFFF;"/>
			<clipPath id="SVGID_120_">
				<use xlink:href="#SVGID_131_"  style="overflow:visible;"/>
			</clipPath>
		</g>
	</g>
	<g>
		<defs>
			<path id="SVGID_133_" d="M-373.9,7.7c-4.7-3.7-8.3-4.8-10.9-3.3c-4,2.2-7.3,8.7-3.4,13.4c2.6,3.1,7.4,7.8,14.3,14l14.9-15.2
				c1.4-4.6,1.1-7.9-0.8-9.9s-4.2-2.9-7.2-2.9l-5,1.8L-373.9,7.7z"/>
		</defs>
		<use xlink:href="#SVGID_133_"  style="overflow:visible;fill-rule:evenodd;clip-rule:evenodd;fill:#FFFFFF;"/>
		<clipPath id="SVGID_122_">
			<use xlink:href="#SVGID_133_"  style="overflow:visible;"/>
		</clipPath>
		<g class="st61">
			<defs>
				<rect id="SVGID_135_" x="-943.1" y="-2258" width="1920" height="2700"/>
			</defs>
			<use xlink:href="#SVGID_135_"  style="overflow:visible;fill:#FFFFFF;"/>
			<clipPath id="SVGID_124_">
				<use xlink:href="#SVGID_135_"  style="overflow:visible;"/>
			</clipPath>
		</g>
	</g>
</g>
<g>
	<g>
		<defs>
			<path id="SVGID_137_" d="M-417.1,17.8L-430,30.6l-12.9-12.9c-1.4-1.4-2.2-3.3-2.2-5.3s0.8-3.9,2.2-5.3c1.4-1.4,3.3-2.2,5.3-2.2
				c2,0,3.9,0.8,5.3,2.2l1.6,1.6c0.4,0.4,1,0.4,1.4,0l1.6-1.6c1.4-1.4,3.3-2.2,5.3-2.2c2,0,3.9,0.8,5.3,2.2c1.4,1.4,2.2,3.3,2.2,5.3
				C-414.9,14.5-415.7,16.4-417.1,17.8z M-415.7,5.8c-1.8-1.8-4.1-2.8-6.7-2.8c-2.5,0-4.9,1-6.7,2.8l-0.9,0.9l-0.9-0.9
				c-1.8-1.8-4.2-2.8-6.7-2.8c-2.5,0-4.9,1-6.6,2.8c-1.8,1.8-2.8,4.1-2.8,6.7c0,2.5,1,4.9,2.8,6.7l13.5,13.5
				c0.2,0.2,0.4,0.3,0.7,0.3s0.5-0.1,0.7-0.3l13.6-13.5c1.8-1.8,2.8-4.1,2.8-6.7C-413,10-414,7.6-415.7,5.8z"/>
		</defs>
		<use xlink:href="#SVGID_137_"  style="overflow:visible;fill:#FFFFFF;"/>
		<clipPath id="SVGID_126_">
			<use xlink:href="#SVGID_137_"  style="overflow:visible;"/>
		</clipPath>
		<g class="st63">
			<defs>
				<rect id="SVGID_139_" x="-944.6" y="-2258" width="1920" height="2700"/>
			</defs>
			<use xlink:href="#SVGID_139_"  style="overflow:visible;fill:#FFFFFF;"/>
			<clipPath id="SVGID_128_">
				<use xlink:href="#SVGID_139_"  style="overflow:visible;"/>
			</clipPath>
		</g>
	</g>
</g>
<g>
	<g>
		<defs>
			<path id="SVGID_141_" d="M-476.5,27.5c-2.6,2.5-5.9,4-9.5,4c-2.4,0-4.8-0.6-6.8-1.9c-0.1-0.1-0.3-0.1-0.4-0.1
				c-0.2,0-0.4,0.1-0.5,0.2c-2,1.5-3.9,1.7-4.8,1.8c1-0.8,1.9-2,2.6-3.6c0.1-0.3,0.1-0.7-0.1-0.9c-4.7-5.3-4.5-13.4,0.6-18.5
				c2.6-2.5,5.9-4,9.5-4s7,1.4,9.5,4C-471.2,13.7-471.2,22.3-476.5,27.5z M-475.4,7.4C-478.2,4.6-482,3-486,3s-7.8,1.6-10.6,4.4
				c-5.5,5.5-5.9,14.2-1,20.1c-0.7,1.4-1.5,2.3-2.4,2.7c-0.5,0.3-0.9,0.9-0.8,1.5c0.1,0.6,0.6,1.1,1.2,1.2c0.3,0.1,0.7,0.1,1.1,0.1
				c1.8,0,3.8-0.6,5.4-1.7c2.2,1.2,4.6,1.8,7.1,1.8c4,0,7.8-1.6,10.6-4.4c2.8-2.8,4.4-6.6,4.4-10.6C-471,14-472.6,10.2-475.4,7.4z"
				/>
		</defs>
		<use xlink:href="#SVGID_141_"  style="overflow:visible;fill:#FFFFFF;"/>
		<clipPath id="SVGID_130_">
			<use xlink:href="#SVGID_141_"  style="overflow:visible;"/>
		</clipPath>
		<g class="st65">
			<defs>
				<rect id="SVGID_143_" x="-948.5" y="-2258" width="1920" height="2700"/>
			</defs>
			<use xlink:href="#SVGID_143_"  style="overflow:visible;fill:#FFFFFF;"/>
			<clipPath id="SVGID_132_">
				<use xlink:href="#SVGID_143_"  style="overflow:visible;"/>
			</clipPath>
		</g>
	</g>
	<g>
		<defs>
			<path id="SVGID_145_" d="M-479.1,12h-13.5c-0.5,0-0.9,0.4-0.9,0.8c0,0.5,0.4,0.8,0.9,0.8h13.5c0.5,0,0.9-0.4,0.9-0.8
				C-478.2,12.4-478.6,12-479.1,12z"/>
		</defs>
		<use xlink:href="#SVGID_145_"  style="overflow:visible;fill:#FFFFFF;"/>
		<clipPath id="SVGID_134_">
			<use xlink:href="#SVGID_145_"  style="overflow:visible;"/>
		</clipPath>
		<g class="st67">
			<defs>
				<rect id="SVGID_147_" x="-948.5" y="-2258" width="1920" height="2700"/>
			</defs>
			<use xlink:href="#SVGID_147_"  style="overflow:visible;fill:#FFFFFF;"/>
			<clipPath id="SVGID_136_">
				<use xlink:href="#SVGID_147_"  style="overflow:visible;"/>
			</clipPath>
		</g>
	</g>
	<g>
		<defs>
			<path id="SVGID_149_" d="M-479.1,16.5h-13.5c-0.5,0-0.9,0.4-0.9,0.8c0,0.5,0.4,0.8,0.9,0.8h13.5c0.5,0,0.9-0.4,0.9-0.8
				C-478.2,16.9-478.6,16.5-479.1,16.5z"/>
		</defs>
		<use xlink:href="#SVGID_149_"  style="overflow:visible;fill:#FFFFFF;"/>
		<clipPath id="SVGID_138_">
			<use xlink:href="#SVGID_149_"  style="overflow:visible;"/>
		</clipPath>
		<g class="st69">
			<defs>
				<rect id="SVGID_151_" x="-948.5" y="-2258" width="1920" height="2700"/>
			</defs>
			<use xlink:href="#SVGID_151_"  style="overflow:visible;fill:#FFFFFF;"/>
			<clipPath id="SVGID_140_">
				<use xlink:href="#SVGID_151_"  style="overflow:visible;"/>
			</clipPath>
		</g>
	</g>
	<g>
		<defs>
			<path id="SVGID_153_" d="M-479.1,21h-13.5c-0.5,0-0.9,0.4-0.9,0.8c0,0.5,0.4,0.8,0.9,0.8h13.5c0.5,0,0.9-0.4,0.9-0.8
				C-478.2,21.4-478.6,21-479.1,21z"/>
		</defs>
		<use xlink:href="#SVGID_153_"  style="overflow:visible;fill:#FFFFFF;"/>
		<clipPath id="SVGID_142_">
			<use xlink:href="#SVGID_153_"  style="overflow:visible;"/>
		</clipPath>
		<g class="st71">
			<defs>
				<rect id="SVGID_155_" x="-948.5" y="-2258" width="1920" height="2700"/>
			</defs>
			<use xlink:href="#SVGID_155_"  style="overflow:visible;fill:#FFFFFF;"/>
			<clipPath id="SVGID_144_">
				<use xlink:href="#SVGID_155_"  style="overflow:visible;"/>
			</clipPath>
		</g>
	</g>
</g>
<g>
	<g>
		<defs>
			<path id="SVGID_157_" d="M-544.2,31.4c-0.7,0-1.2-0.6-1.2-1.2c0-0.7,0.6-1.2,1.2-1.2s1.2,0.6,1.2,1.2
				C-543,30.9-543.5,31.4-544.2,31.4z M-544.2,27.4c-1.5,0-2.8,1.2-2.8,2.8c0,1.5,1.2,2.8,2.8,2.8s2.8-1.2,2.8-2.8
				C-541.4,28.7-542.7,27.4-544.2,27.4z"/>
		</defs>
		<use xlink:href="#SVGID_157_"  style="overflow:visible;fill:#FFFFFF;"/>
		<clipPath id="SVGID_146_">
			<use xlink:href="#SVGID_157_"  style="overflow:visible;"/>
		</clipPath>
		<g class="st73">
			<defs>
				<rect id="SVGID_159_" x="-952.6" y="-2258" width="1920" height="2700"/>
			</defs>
			<use xlink:href="#SVGID_159_"  style="overflow:visible;fill:#FFFFFF;"/>
			<clipPath id="SVGID_148_">
				<use xlink:href="#SVGID_159_"  style="overflow:visible;"/>
			</clipPath>
		</g>
	</g>
	<g>
		<g>
			<defs>
				<path id="SVGID_161_" d="M-534.2,31.4c-0.7,0-1.2-0.6-1.2-1.2c0-0.7,0.6-1.2,1.2-1.2c0.7,0,1.2,0.6,1.2,1.2
					C-533,30.9-533.5,31.4-534.2,31.4z M-534.2,27.4c-1.5,0-2.8,1.2-2.8,2.8c0,1.5,1.2,2.8,2.8,2.8s2.8-1.2,2.8-2.8
					C-531.4,28.7-532.7,27.4-534.2,27.4z"/>
			</defs>
			<use xlink:href="#SVGID_161_"  style="overflow:visible;fill:#FFFFFF;"/>
			<clipPath id="SVGID_150_">
				<use xlink:href="#SVGID_161_"  style="overflow:visible;"/>
			</clipPath>
			<g class="st75">
				<defs>
					<rect id="SVGID_163_" x="-952.6" y="-2258" width="1920" height="2700"/>
				</defs>
				<use xlink:href="#SVGID_163_"  style="overflow:visible;fill:#FFFFFF;"/>
				<clipPath id="SVGID_152_">
					<use xlink:href="#SVGID_163_"  style="overflow:visible;"/>
				</clipPath>
			</g>
		</g>
		<g>
			<defs>
				<path id="SVGID_165_" d="M-533.4,11.9h-11.7c-0.5,0-0.8,0.2-0.8,0.6c0,0.3,0.4,0.6,0.8,0.6h11.7c0.5,0,0.8-0.2,0.8-0.6
					C-532.6,12.1-532.9,11.9-533.4,11.9z"/>
			</defs>
			<use xlink:href="#SVGID_165_"  style="overflow:visible;fill:#FFFFFF;"/>
			<clipPath id="SVGID_154_">
				<use xlink:href="#SVGID_165_"  style="overflow:visible;"/>
			</clipPath>
			<g class="st77">
				<defs>
					<rect id="SVGID_167_" x="-952.6" y="-2258" width="1920" height="2700"/>
				</defs>
				<use xlink:href="#SVGID_167_"  style="overflow:visible;fill:#FFFFFF;"/>
				<clipPath id="SVGID_156_">
					<use xlink:href="#SVGID_167_"  style="overflow:visible;"/>
				</clipPath>
			</g>
		</g>
		<g>
			<defs>
				<path id="SVGID_169_" d="M-534.5,16.3h-10.6c-0.5,0-0.8,0.2-0.8,0.6c0,0.3,0.4,0.6,0.8,0.6h10.6c0.5,0,0.8-0.2,0.8-0.6
					C-533.7,16.6-534,16.3-534.5,16.3z"/>
			</defs>
			<use xlink:href="#SVGID_169_"  style="overflow:visible;fill:#FFFFFF;"/>
			<clipPath id="SVGID_158_">
				<use xlink:href="#SVGID_169_"  style="overflow:visible;"/>
			</clipPath>
			<g class="st79">
				<defs>
					<rect id="SVGID_171_" x="-952.6" y="-2258" width="1920" height="2700"/>
				</defs>
				<use xlink:href="#SVGID_171_"  style="overflow:visible;fill:#FFFFFF;"/>
				<clipPath id="SVGID_160_">
					<use xlink:href="#SVGID_171_"  style="overflow:visible;"/>
				</clipPath>
			</g>
		</g>
		<g>
			<defs>
				<path id="SVGID_173_" d="M-529.7,20.8h-19.9l-2.2-11h24.3L-529.7,20.8z M-526.2,8.8c-0.3-0.4-0.7-0.6-1.2-0.6h-24.6l-0.5-2.5
					c-0.1-0.5-0.4-0.9-0.9-1.2l-3.5-1.5c-0.4-0.2-0.9,0-1,0.4c-0.2,0.4,0,0.9,0.4,1.1l3.5,1.5l3.8,19c0.2,0.7,0.8,1.3,1.5,1.3h19
					c0.4,0,0.8-0.4,0.8-0.8c0-0.4-0.4-0.8-0.8-0.8h-19l-0.5-2.3h19.6c0.7,0,1.4-0.5,1.5-1.3l2.2-11C-525.8,9.7-525.9,9.2-526.2,8.8z
					"/>
			</defs>
			<use xlink:href="#SVGID_173_"  style="overflow:visible;fill:#FFFFFF;"/>
			<clipPath id="SVGID_162_">
				<use xlink:href="#SVGID_173_"  style="overflow:visible;"/>
			</clipPath>
			<g class="st81">
				<defs>
					<rect id="SVGID_175_" x="-952.6" y="-2258" width="1920" height="2700"/>
				</defs>
				<use xlink:href="#SVGID_175_"  style="overflow:visible;fill:#FFFFFF;"/>
				<clipPath id="SVGID_164_">
					<use xlink:href="#SVGID_175_"  style="overflow:visible;"/>
				</clipPath>
			</g>
		</g>
	</g>
</g>
<g>
	<g>
		<defs>
			<path id="SVGID_177_" d="M-581.1,14.9l-16.4-11.7c-0.3-0.2-0.7-0.2-1.1,0l-16.4,11.7c-0.4,0.3-0.5,0.8-0.2,1.2
				c0.3,0.4,0.9,0.5,1.3,0.2L-598,5l15.8,11.4c0.2,0.1,0.3,0.2,0.5,0.2c0.3,0,0.5-0.1,0.7-0.4C-580.6,15.7-580.7,15.2-581.1,14.9z"
				/>
		</defs>
		<use xlink:href="#SVGID_177_"  style="overflow:visible;fill:#FFFFFF;"/>
		<clipPath id="SVGID_166_">
			<use xlink:href="#SVGID_177_"  style="overflow:visible;"/>
		</clipPath>
		<g class="st83">
			<defs>
				<rect id="SVGID_179_" x="-955.2" y="-2258" width="1920" height="2700"/>
			</defs>
			<use xlink:href="#SVGID_179_"  style="overflow:visible;fill:#FFFFFF;"/>
			<clipPath id="SVGID_168_">
				<use xlink:href="#SVGID_179_"  style="overflow:visible;"/>
			</clipPath>
		</g>
	</g>
	<g>
		<defs>
			<path id="SVGID_181_" d="M-585.4,16.5c-0.5,0-0.9,0.4-0.9,0.9v13.9h-7.2v-7.6c0-2.4-2-4.4-4.5-4.4c-2.5,0-4.5,2-4.5,4.4v7.6h-7.2
				V17.4c0-0.5-0.4-0.9-0.9-0.9c-0.5,0-0.9,0.4-0.9,0.9v14.8c0,0.5,0.4,0.9,0.9,0.9h9c0.5,0,0.9-0.4,0.9-0.8c0,0,0,0,0-0.1v-8.4
				c0-1.4,1.2-2.6,2.7-2.6s2.7,1.2,2.7,2.6v8.4c0,0,0,0,0,0.1c0,0.5,0.4,0.8,0.9,0.8h9c0.5,0,0.9-0.4,0.9-0.9V17.4
				C-584.5,16.9-584.9,16.5-585.4,16.5z"/>
		</defs>
		<use xlink:href="#SVGID_181_"  style="overflow:visible;fill:#FFFFFF;"/>
		<clipPath id="SVGID_170_">
			<use xlink:href="#SVGID_181_"  style="overflow:visible;"/>
		</clipPath>
		<g class="st85">
			<defs>
				<rect id="SVGID_183_" x="-954.5" y="-2258" width="1920" height="2700"/>
			</defs>
			<use xlink:href="#SVGID_183_"  style="overflow:visible;fill:#FFFFFF;"/>
			<clipPath id="SVGID_172_">
				<use xlink:href="#SVGID_183_"  style="overflow:visible;"/>
			</clipPath>
		</g>
	</g>
</g>
</svg>
