<?xml version="1.0" encoding="utf-8"?>
<!-- Generator: Adobe Illustrator 22.0.1, SVG Export Plug-In . SVG Version: 6.00 Build 0)  -->
<svg version="1.1" id="Layer_1" xmlns="http://www.w3.org/2000/svg" xmlns:xlink="http://www.w3.org/1999/xlink" x="0px" y="0px"
	 viewBox="0 0 36 36" style="enable-background:new 0 0 36 36;" xml:space="preserve">
<style type="text/css">
	.st0{clip-path:url(#SVGID_2_);}
	.st1{clip-path:url(#SVGID_4_);fill:#CE7357;}
	.st2{clip-path:url(#SVGID_6_);}
	.st3{clip-path:url(#SVGID_8_);fill:#CE7357;}
	.st4{clip-path:url(#SVGID_10_);}
	.st5{clip-path:url(#SVGID_12_);fill:#CE7357;}
	.st6{clip-path:url(#SVGID_14_);}
	.st7{clip-path:url(#SVGID_16_);fill:#CE7357;}
	.st8{clip-path:url(#SVGID_18_);}
	.st9{clip-path:url(#SVGID_20_);fill:#CE7357;}
	.st10{clip-path:url(#SVGID_22_);}
	.st11{clip-path:url(#SVGID_24_);fill:#CE7357;}
	.st12{clip-path:url(#SVGID_26_);}
	.st13{clip-path:url(#SVGID_28_);fill:#CE7357;}
	.st14{clip-path:url(#SVGID_30_);}
	.st15{clip-path:url(#SVGID_32_);fill:#CE7357;}
	.st16{clip-path:url(#SVGID_34_);}
	.st17{clip-path:url(#SVGID_36_);fill:#CE7357;}
	.st18{clip-path:url(#SVGID_38_);}
	.st19{clip-path:url(#SVGID_40_);fill:#CE7357;}
	.st20{clip-path:url(#SVGID_42_);}
	.st21{clip-path:url(#SVGID_44_);fill:#CE7357;}
	.st22{clip-path:url(#SVGID_46_);}
	.st23{clip-path:url(#SVGID_48_);fill:#CE7357;}
	.st24{clip-path:url(#SVGID_50_);}
	.st25{clip-path:url(#SVGID_52_);fill:#CE7357;}
	.st26{clip-path:url(#SVGID_54_);}
	.st27{clip-path:url(#SVGID_56_);fill:#CE7357;}
	.st28{clip-path:url(#SVGID_58_);}
	.st29{clip-path:url(#SVGID_60_);fill:#CE7357;}
	.st30{clip-path:url(#SVGID_62_);}
	.st31{clip-path:url(#SVGID_64_);fill:#CE7357;}
	.st32{clip-path:url(#SVGID_66_);}
	.st33{clip-path:url(#SVGID_68_);fill:#CE7357;}
	.st34{clip-path:url(#SVGID_70_);}
	.st35{clip-path:url(#SVGID_72_);fill:#CE7357;}
	.st36{clip-path:url(#SVGID_74_);}
	.st37{clip-path:url(#SVGID_76_);fill:#CE7357;}
	.st38{clip-path:url(#SVGID_78_);}
	.st39{clip-path:url(#SVGID_80_);fill:#CE7357;}
	.st40{clip-path:url(#SVGID_82_);}
	.st41{clip-path:url(#SVGID_84_);fill:#CE7357;}
	.st42{clip-path:url(#SVGID_86_);}
	.st43{clip-path:url(#SVGID_88_);fill:#CE7357;}
	.st44{clip-path:url(#SVGID_90_);}
	.st45{clip-path:url(#SVGID_92_);fill:#CE7357;}
	.st46{enable-background:new    ;}
	.st47{clip-path:url(#SVGID_94_);}
	.st48{clip-path:url(#SVGID_96_);fill:#CE7357;}
	.st49{clip-path:url(#SVGID_98_);}
	.st50{clip-path:url(#SVGID_100_);fill:#CE7357;}
	.st51{clip-path:url(#SVGID_102_);}
	.st52{clip-path:url(#SVGID_104_);fill:#CE7357;}
	.st53{clip-path:url(#SVGID_106_);}
	.st54{clip-path:url(#SVGID_108_);fill:#CE7357;}
	.st55{clip-path:url(#SVGID_110_);}
	.st56{clip-path:url(#SVGID_112_);fill:#CE7357;}
	.st57{clip-path:url(#SVGID_114_);}
	.st58{clip-path:url(#SVGID_116_);fill:#CE7357;}
	.st59{clip-path:url(#SVGID_118_);}
	.st60{clip-path:url(#SVGID_120_);fill:#CE7357;}
	.st61{clip-path:url(#SVGID_122_);}
	.st62{clip-path:url(#SVGID_124_);fill:#CE7357;}
	.st63{clip-path:url(#SVGID_126_);}
	.st64{clip-path:url(#SVGID_128_);fill:#CE7357;}
	.st65{clip-path:url(#SVGID_130_);}
	.st66{clip-path:url(#SVGID_132_);fill:#CE7357;}
	.st67{clip-path:url(#SVGID_134_);}
	.st68{clip-path:url(#SVGID_136_);fill:#CE7357;}
	.st69{clip-path:url(#SVGID_138_);}
	.st70{clip-path:url(#SVGID_140_);fill:#CE7357;}
	.st71{clip-path:url(#SVGID_142_);}
	.st72{clip-path:url(#SVGID_144_);fill:#CE7357;}
	.st73{clip-path:url(#SVGID_146_);}
	.st74{clip-path:url(#SVGID_148_);fill:#CE7357;}
	.st75{clip-path:url(#SVGID_150_);}
	.st76{clip-path:url(#SVGID_152_);fill:#CE7357;}
	.st77{clip-path:url(#SVGID_154_);}
	.st78{clip-path:url(#SVGID_156_);fill:#CE7357;}
	.st79{clip-path:url(#SVGID_158_);}
	.st80{clip-path:url(#SVGID_160_);fill:#CE7357;}
	.st81{clip-path:url(#SVGID_162_);}
	.st82{clip-path:url(#SVGID_164_);fill:#CE7357;}
	.st83{clip-path:url(#SVGID_166_);}
	.st84{clip-path:url(#SVGID_168_);fill:#CE7357;}
	.st85{clip-path:url(#SVGID_170_);}
	.st86{clip-path:url(#SVGID_172_);fill:#CE7357;}
	.st87{clip-path:url(#SVGID_174_);}
	.st88{clip-path:url(#SVGID_176_);fill:#CE7357;}
	.st89{clip-path:url(#SVGID_178_);}
	.st90{clip-path:url(#SVGID_180_);fill:#CE7357;}
	.st91{clip-path:url(#SVGID_182_);}
	.st92{clip-path:url(#SVGID_184_);fill:#CE7357;}
</style>
<g>
	<g>
		<defs>
			<path id="SVGID_1_" d="M899.4,24.2c-0.2,0.2-0.3,0.5-0.3,0.7s0.1,0.5,0.3,0.7c0.4,0.4,1.1,0.4,1.5,0L914,12.6l13.1,13.1
				c0.4,0.4,1.1,0.4,1.5,0c0.4-0.4,0.4-1.1,0-1.5l-13.8-13.8c-0.4-0.4-1.1-0.4-1.5,0L899.4,24.2z"/>
		</defs>
		<use xlink:href="#SVGID_1_"  style="overflow:visible;fill:#CE7357;"/>
		<clipPath id="SVGID_2_">
			<use xlink:href="#SVGID_1_"  style="overflow:visible;"/>
		</clipPath>
		<g class="st0">
			<defs>
				<rect id="SVGID_3_" x="-448.1" y="-2258" width="1920" height="2700"/>
			</defs>
			<use xlink:href="#SVGID_3_"  style="overflow:visible;fill:#CE7357;"/>
			<clipPath id="SVGID_4_">
				<use xlink:href="#SVGID_3_"  style="overflow:visible;"/>
			</clipPath>
		</g>
	</g>
</g>
<g>
	<defs>
		<path id="SVGID_5_" d="M843.4,11.8c-0.2-0.2-0.3-0.5-0.3-0.7c0-0.3,0.1-0.5,0.3-0.7c0.4-0.4,1.1-0.4,1.5,0L858,23.4l13.1-13.1
			c0.4-0.4,1.1-0.4,1.5,0c0.4,0.4,0.4,1.1,0,1.5l-13.8,13.8c-0.4,0.4-1.1,0.4-1.5,0L843.4,11.8z"/>
	</defs>
	<use xlink:href="#SVGID_5_"  style="overflow:visible;fill:#CE7357;"/>
	<clipPath id="SVGID_6_">
		<use xlink:href="#SVGID_5_"  style="overflow:visible;"/>
	</clipPath>
	<g class="st2">
		<defs>
			<rect id="SVGID_7_" x="-454" y="-2258" width="1920" height="2700"/>
		</defs>
		<use xlink:href="#SVGID_7_"  style="overflow:visible;fill:#CE7357;"/>
		<clipPath id="SVGID_8_">
			<use xlink:href="#SVGID_7_"  style="overflow:visible;"/>
		</clipPath>
	</g>
</g>
<g>
	<g>
		<defs>
			<path id="SVGID_9_" d="M808.2,32.6c0.2,0.2,0.5,0.3,0.7,0.3c0.3,0,0.5-0.1,0.7-0.3c0.4-0.4,0.4-1.1,0-1.5L796.6,18l13.1-13.1
				c0.4-0.4,0.4-1.1,0-1.5c-0.4-0.4-1.1-0.4-1.5,0l-13.8,13.8c-0.4,0.4-0.4,1.1,0,1.5L808.2,32.6z"/>
		</defs>
		<use xlink:href="#SVGID_9_"  style="overflow:visible;fill:#CE7357;"/>
		<clipPath id="SVGID_10_">
			<use xlink:href="#SVGID_9_"  style="overflow:visible;"/>
		</clipPath>
		<g class="st4">
			<defs>
				<rect id="SVGID_11_" x="-466.9" y="-2258" width="1920" height="2700"/>
			</defs>
			<use xlink:href="#SVGID_11_"  style="overflow:visible;fill:#CE7357;"/>
			<clipPath id="SVGID_12_">
				<use xlink:href="#SVGID_11_"  style="overflow:visible;"/>
			</clipPath>
		</g>
	</g>
</g>
<g>
	<g>
		<defs>
			<path id="SVGID_13_" d="M739.8,32.6c-0.2,0.2-0.5,0.3-0.7,0.3c-0.3,0-0.5-0.1-0.7-0.3c-0.4-0.4-0.4-1.1,0-1.5L751.4,18L738.3,4.9
				c-0.4-0.4-0.4-1.1,0-1.5c0.4-0.4,1.1-0.4,1.5,0l13.8,13.8c0.4,0.4,0.4,1.1,0,1.5L739.8,32.6z"/>
		</defs>
		<use xlink:href="#SVGID_13_"  style="overflow:visible;fill:#CE7357;"/>
		<clipPath id="SVGID_14_">
			<use xlink:href="#SVGID_13_"  style="overflow:visible;"/>
		</clipPath>
		<g class="st6">
			<defs>
				<rect id="SVGID_15_" x="-485" y="-2258" width="1920" height="2700"/>
			</defs>
			<use xlink:href="#SVGID_15_"  style="overflow:visible;fill:#CE7357;"/>
			<clipPath id="SVGID_16_">
				<use xlink:href="#SVGID_15_"  style="overflow:visible;"/>
			</clipPath>
		</g>
	</g>
</g>
<g>
	<g>
		<defs>
			<path id="SVGID_17_" d="M699.4,27.4c-2.5,2.5-5.9,3.9-9.4,3.9c-3.5,0-6.9-1.4-9.4-3.9c-5.2-5.2-5.2-13.6,0-18.8
				c2.5-2.5,5.9-3.9,9.4-3.9c3.5,0,6.9,1.4,9.4,3.9C704.6,13.8,704.6,22.2,699.4,27.4z M700.6,7.4C697.8,4.6,694,3,690,3
				c-4,0-7.8,1.6-10.6,4.4S675,14,675,18s1.6,7.8,4.4,10.6S686,33,690,33c4,0,7.8-1.6,10.6-4.4S705,22,705,18S703.4,10.2,700.6,7.4z
				"/>
		</defs>
		<use xlink:href="#SVGID_17_"  style="overflow:visible;fill:#CE7357;"/>
		<clipPath id="SVGID_18_">
			<use xlink:href="#SVGID_17_"  style="overflow:visible;"/>
		</clipPath>
		<g class="st8">
			<defs>
				<rect id="SVGID_19_" x="-497.9" y="-2258" width="1920" height="2700"/>
			</defs>
			<use xlink:href="#SVGID_19_"  style="overflow:visible;fill:#CE7357;"/>
			<clipPath id="SVGID_20_">
				<use xlink:href="#SVGID_19_"  style="overflow:visible;"/>
			</clipPath>
		</g>
	</g>
	<g>
		<defs>
			<path id="SVGID_21_" d="M696.8,11.2c-0.3-0.3-0.9-0.3-1.2,0l-5.6,5.6l-5.6-5.6c-0.3-0.3-0.9-0.3-1.2,0c-0.3,0.3-0.3,0.9,0,1.2
				l5.6,5.6l-5.6,5.6c-0.3,0.3-0.3,0.9,0,1.2c0.2,0.2,0.4,0.3,0.6,0.3c0.2,0,0.4-0.1,0.6-0.3l5.6-5.6l5.6,5.6
				c0.2,0.2,0.4,0.3,0.6,0.3c0.2,0,0.4-0.1,0.6-0.3c0.3-0.3,0.3-0.9,0-1.2l-5.5-5.6l5.6-5.6C697.1,12.1,697.1,11.5,696.8,11.2z"/>
		</defs>
		<use xlink:href="#SVGID_21_"  style="overflow:visible;fill:#CE7357;"/>
		<clipPath id="SVGID_22_">
			<use xlink:href="#SVGID_21_"  style="overflow:visible;"/>
		</clipPath>
		<g class="st10">
			<defs>
				<rect id="SVGID_23_" x="-497.9" y="-2258" width="1920" height="2700"/>
			</defs>
			<use xlink:href="#SVGID_23_"  style="overflow:visible;fill:#CE7357;"/>
			<clipPath id="SVGID_24_">
				<use xlink:href="#SVGID_23_"  style="overflow:visible;"/>
			</clipPath>
		</g>
	</g>
</g>
<g>
	<g>
		<defs>
			<polygon id="SVGID_25_" points="637.7,13.2 637.8,15.3 645,15.3 645,30.8 623,30.8 623,15.3 630.2,15.3 630.2,13.1 620.9,13.1 
				620.9,33 647.1,33 647.1,13.1 			"/>
		</defs>
		<use xlink:href="#SVGID_25_"  style="overflow:visible;fill:#CE7357;"/>
		<clipPath id="SVGID_26_">
			<use xlink:href="#SVGID_25_"  style="overflow:visible;"/>
		</clipPath>
		<g class="st12">
			<defs>
				<rect id="SVGID_27_" x="-505" y="-2258" width="1920" height="2700"/>
			</defs>
			<use xlink:href="#SVGID_27_"  style="overflow:visible;fill:#CE7357;"/>
			<clipPath id="SVGID_28_">
				<use xlink:href="#SVGID_27_"  style="overflow:visible;"/>
			</clipPath>
		</g>
	</g>
	<g>
		<defs>
			<polygon id="SVGID_29_" points="632.9,22.1 632.9,3 635.1,3 635.1,22.1 637.6,19.6 639.1,21.2 634,26.3 628.8,21.2 630.4,19.6 
							"/>
		</defs>
		<use xlink:href="#SVGID_29_"  style="overflow:visible;fill:#CE7357;"/>
		<clipPath id="SVGID_30_">
			<use xlink:href="#SVGID_29_"  style="overflow:visible;"/>
		</clipPath>
		<g class="st14">
			<defs>
				<rect id="SVGID_31_" x="-505" y="-2258" width="1920" height="2700"/>
			</defs>
			<use xlink:href="#SVGID_31_"  style="overflow:visible;fill:#CE7357;"/>
			<clipPath id="SVGID_32_">
				<use xlink:href="#SVGID_31_"  style="overflow:visible;"/>
			</clipPath>
		</g>
	</g>
</g>
<g>
	<g>
		<defs>
			<polygon id="SVGID_33_" points="581.7,13.2 581.8,15.3 589,15.3 589,30.8 567,30.8 567,15.3 574.2,15.3 574.2,13.1 564.9,13.1 
				564.9,33 591.1,33 591.1,13.1 			"/>
		</defs>
		<use xlink:href="#SVGID_33_"  style="overflow:visible;fill:#CE7357;"/>
		<clipPath id="SVGID_34_">
			<use xlink:href="#SVGID_33_"  style="overflow:visible;"/>
		</clipPath>
		<g class="st16">
			<defs>
				<rect id="SVGID_35_" x="-514" y="-2258" width="1920" height="2700"/>
			</defs>
			<use xlink:href="#SVGID_35_"  style="overflow:visible;fill:#CE7357;"/>
			<clipPath id="SVGID_36_">
				<use xlink:href="#SVGID_35_"  style="overflow:visible;"/>
			</clipPath>
		</g>
	</g>
	<g>
		<defs>
			<polygon id="SVGID_37_" points="576.9,7.2 576.9,26.3 579.1,26.3 579.1,7.2 581.6,9.7 583.1,8.2 578,3 572.8,8.2 574.4,9.7 			
				"/>
		</defs>
		<use xlink:href="#SVGID_37_"  style="overflow:visible;fill:#CE7357;"/>
		<clipPath id="SVGID_38_">
			<use xlink:href="#SVGID_37_"  style="overflow:visible;"/>
		</clipPath>
		<g class="st18">
			<defs>
				<rect id="SVGID_39_" x="-514" y="-2258" width="1920" height="2700"/>
			</defs>
			<use xlink:href="#SVGID_39_"  style="overflow:visible;fill:#CE7357;"/>
			<clipPath id="SVGID_40_">
				<use xlink:href="#SVGID_39_"  style="overflow:visible;"/>
			</clipPath>
		</g>
	</g>
</g>
<g>
	<g>
		<defs>
			<path id="SVGID_41_" d="M534.1,12.7l-6.9-6.9c0.9-0.7,2-1.1,3.1-1.1c1.3,0,2.5,0.5,3.5,1.4c0.9,0.9,1.4,2.2,1.4,3.5
				C535.3,10.8,534.9,11.9,534.1,12.7z M517.3,29.6l-2.8-2.8l15.6-15.6l2.8,2.8L517.3,29.6z M526,7.1l2.9,2.9l-15.6,15.6l-2.9-2.9
				L526,7.1z M535,5c-2.6-2.6-6.8-2.6-9.4,0l-17.1,17.1c-0.1,0.1-0.2,0.3-0.2,0.5L507,32c0,0.3,0.1,0.5,0.2,0.7
				c0.2,0.2,0.4,0.3,0.6,0.3c0,0,0.1,0,0.1,0l5.7-0.8c0.5-0.1,0.8-0.5,0.7-1c-0.1-0.5-0.5-0.8-1-0.7l-4.5,0.6l0.9-6.6l6.9,6.9
				c0.2,0.2,0.4,0.3,0.6,0.3c0.2,0,0.4-0.1,0.6-0.3L535,14.3c1.3-1.3,1.9-2.9,1.9-4.7C537,7.9,536.3,6.2,535,5z"/>
		</defs>
		<use xlink:href="#SVGID_41_"  style="overflow:visible;fill:#CE7357;"/>
		<clipPath id="SVGID_42_">
			<use xlink:href="#SVGID_41_"  style="overflow:visible;"/>
		</clipPath>
		<g class="st20">
			<defs>
				<rect id="SVGID_43_" x="-521.8" y="-2258" width="1920" height="2700"/>
			</defs>
			<use xlink:href="#SVGID_43_"  style="overflow:visible;fill:#CE7357;"/>
			<clipPath id="SVGID_44_">
				<use xlink:href="#SVGID_43_"  style="overflow:visible;"/>
			</clipPath>
		</g>
	</g>
</g>
<g>
	<g>
		<defs>
			<path id="SVGID_45_" d="M480.2,28.2l-6.9-6.9c-1,1.6-2.4,2.9-4,4l6.9,6.9c1.1,1.1,2.9,1.1,4,0C481.2,31.1,481.2,29.3,480.2,28.2z
				"/>
		</defs>
		<use xlink:href="#SVGID_45_"  style="overflow:visible;fill:#CE7357;"/>
		<clipPath id="SVGID_46_">
			<use xlink:href="#SVGID_45_"  style="overflow:visible;"/>
		</clipPath>
		<g class="st22">
			<defs>
				<rect id="SVGID_47_" x="-527.8" y="-2258" width="1920" height="2700"/>
			</defs>
			<use xlink:href="#SVGID_47_"  style="overflow:visible;fill:#CE7357;"/>
			<clipPath id="SVGID_48_">
				<use xlink:href="#SVGID_47_"  style="overflow:visible;"/>
			</clipPath>
		</g>
	</g>
	<g>
		<defs>
			<path id="SVGID_49_" d="M462.3,22.7c-4.6,0-8.4-3.8-8.4-8.4c0-4.6,3.8-8.4,8.4-8.4c4.6,0,8.4,3.8,8.4,8.4
				C470.7,18.9,466.9,22.7,462.3,22.7z M473.5,14.3c0-6.2-5-11.2-11.2-11.2c-6.2,0-11.2,5-11.2,11.2s5,11.2,11.2,11.2
				C468.5,25.5,473.5,20.5,473.5,14.3z"/>
		</defs>
		<use xlink:href="#SVGID_49_"  style="overflow:visible;fill:#CE7357;"/>
		<clipPath id="SVGID_50_">
			<use xlink:href="#SVGID_49_"  style="overflow:visible;"/>
		</clipPath>
		<g class="st24">
			<defs>
				<rect id="SVGID_51_" x="-527.8" y="-2258" width="1920" height="2700"/>
			</defs>
			<use xlink:href="#SVGID_51_"  style="overflow:visible;fill:#CE7357;"/>
			<clipPath id="SVGID_52_">
				<use xlink:href="#SVGID_51_"  style="overflow:visible;"/>
			</clipPath>
		</g>
	</g>
	<g>
		<defs>
			<path id="SVGID_53_" d="M455.7,14.3h1.9c0-2.6,2.1-4.7,4.7-4.7V7.7C458.6,7.7,455.7,10.6,455.7,14.3z"/>
		</defs>
		<use xlink:href="#SVGID_53_"  style="overflow:visible;fill:#CE7357;"/>
		<clipPath id="SVGID_54_">
			<use xlink:href="#SVGID_53_"  style="overflow:visible;"/>
		</clipPath>
		<g class="st26">
			<defs>
				<rect id="SVGID_55_" x="-527.8" y="-2258" width="1920" height="2700"/>
			</defs>
			<use xlink:href="#SVGID_55_"  style="overflow:visible;fill:#CE7357;"/>
			<clipPath id="SVGID_56_">
				<use xlink:href="#SVGID_55_"  style="overflow:visible;"/>
			</clipPath>
		</g>
	</g>
</g>
<g>
	<g>
		<defs>
			<path id="SVGID_57_" d="M425.3,10.8v14.5l-4.9-5v-4.4L425.3,10.8z M419,27.4h-24.3V8.6H419V27.4z M419.3,7.1h-24.8
				c-0.6,0-1.2,0.5-1.2,1.2v19.3c0,0.6,0.5,1.2,1.2,1.2h24.8c0.6,0,1.2-0.5,1.2-1.2v-5.6l4.3,4.3c0.2,0.2,0.5,0.3,0.8,0.3
				c0.1,0,0.3,0,0.5-0.1c0.4-0.2,0.7-0.6,0.7-1.1V10.4c0-0.5-0.3-0.9-0.7-1.1c-0.4-0.2-1-0.1-1.3,0.3l-4.3,4.3V8.3
				C420.4,7.7,419.9,7.1,419.3,7.1z"/>
		</defs>
		<use xlink:href="#SVGID_57_"  style="overflow:visible;fill:#CE7357;"/>
		<clipPath id="SVGID_58_">
			<use xlink:href="#SVGID_57_"  style="overflow:visible;"/>
		</clipPath>
		<g class="st28">
			<defs>
				<rect id="SVGID_59_" x="-531.6" y="-2257.9" width="1920" height="2700"/>
			</defs>
			<use xlink:href="#SVGID_59_"  style="overflow:visible;fill:#CE7357;"/>
			<clipPath id="SVGID_60_">
				<use xlink:href="#SVGID_59_"  style="overflow:visible;"/>
			</clipPath>
		</g>
	</g>
</g>
<g>
	<g>
		<defs>
			<path id="SVGID_61_" d="M347.1,10.4c0.4,0,0.7-0.3,0.8-0.7l0.3-1.2c0.4-1.5,1.7-2.6,3.3-2.6h4.9c1.6,0,2.9,1.1,3.3,2.6l0.3,1.2
				c0.1,0.4,0.4,0.7,0.8,0.7h6.2c1.2,0,2.2,1,2.2,2.2v15c0,1.4-1.1,2.4-2.4,2.4h-25.7c-1.4,0-2.4-1.1-2.4-2.4v-15
				c0-1.2,1-2.2,2.2-2.2H347.1z M337,12.6v15c0,2.3,1.9,4.1,4.1,4.1h25.7c2.3,0,4.1-1.9,4.1-4.1v-15c0-2.2-1.8-3.9-3.9-3.9h-5.5
				l-0.1-0.6c-0.5-2.3-2.6-3.9-4.9-3.9h-4.9c-2.4,0-4.4,1.6-4.9,3.9l-0.1,0.6h-5.5C338.8,8.7,337,10.5,337,12.6z"/>
		</defs>
		<use xlink:href="#SVGID_61_"  style="overflow:visible;fill:#CE7357;"/>
		<clipPath id="SVGID_62_">
			<use xlink:href="#SVGID_61_"  style="overflow:visible;"/>
		</clipPath>
		<g class="st30">
			<defs>
				<rect id="SVGID_63_" x="-533.8" y="-2257.8" width="1920" height="2700"/>
			</defs>
			<use xlink:href="#SVGID_63_"  style="overflow:visible;fill:#CE7357;"/>
			<clipPath id="SVGID_64_">
				<use xlink:href="#SVGID_63_"  style="overflow:visible;"/>
			</clipPath>
		</g>
	</g>
	<g>
		<defs>
			<circle id="SVGID_65_" cx="342.8" cy="14" r="1.1"/>
		</defs>
		<use xlink:href="#SVGID_65_"  style="overflow:visible;fill:#CE7357;"/>
		<clipPath id="SVGID_66_">
			<use xlink:href="#SVGID_65_"  style="overflow:visible;"/>
		</clipPath>
		<g class="st32">
			<defs>
				<rect id="SVGID_67_" x="-533.8" y="-2257.8" width="1920" height="2700"/>
			</defs>
			<use xlink:href="#SVGID_67_"  style="overflow:visible;fill:#CE7357;"/>
			<clipPath id="SVGID_68_">
				<use xlink:href="#SVGID_67_"  style="overflow:visible;"/>
			</clipPath>
		</g>
	</g>
	<g>
		<defs>
			<path id="SVGID_69_" d="M354,14.9c3,0,5.4,2.4,5.4,5.4s-2.4,5.4-5.4,5.4c-3,0-5.4-2.4-5.4-5.4S351,14.9,354,14.9z M354,27.4
				c3.9,0,7.1-3.2,7.1-7.1c0-3.9-3.2-7.1-7.1-7.1c-3.9,0-7.1,3.2-7.1,7.1C346.9,24.2,350.1,27.4,354,27.4z"/>
		</defs>
		<use xlink:href="#SVGID_69_"  style="overflow:visible;fill:#CE7357;"/>
		<clipPath id="SVGID_70_">
			<use xlink:href="#SVGID_69_"  style="overflow:visible;"/>
		</clipPath>
		<g class="st34">
			<defs>
				<rect id="SVGID_71_" x="-533.8" y="-2257.8" width="1920" height="2700"/>
			</defs>
			<use xlink:href="#SVGID_71_"  style="overflow:visible;fill:#CE7357;"/>
			<clipPath id="SVGID_72_">
				<use xlink:href="#SVGID_71_"  style="overflow:visible;"/>
			</clipPath>
		</g>
	</g>
</g>
<g>
	<g>
		<defs>
			<path id="SVGID_73_" d="M288.7,31.3c1.4-2.1,3.4-3.7,5.8-4.5c0.4-0.1,0.6-0.4,0.6-0.8v-3.2c0-0.2-0.1-0.5-0.3-0.6
				c-0.2-0.2-0.4-0.3-0.6-0.2c-2.5,0-4-0.5-4.8-1c0.1-0.1,0.1-0.1,0.2-0.2c1.2-1.3,1.8-3.8,1.8-7.4c-0.2-6.7,2.7-7.7,3.9-8.2l0,0
				c0.7-0.3,1.4-0.4,2-0.4c1.6,0,2.5,0.9,2.5,1c0.2,0.2,0.5,0.3,0.7,0.3c0.1,0,0.3,0,0.4,0c0.9,0,1.6,0.3,2.2,0.9
				c1.2,1.3,1.7,4.1,1.3,7.7c-0.4,3.6,0.8,5.4,1.7,6.3c-1.3,0.7-3.2,1-4.6,1c-0.1,0-0.1,0-0.1,0c-0.2,0-0.5,0.1-0.6,0.2
				c-0.2,0.2-0.3,0.4-0.3,0.6V26c0,0.4,0.2,0.7,0.6,0.8c2.4,0.8,4.5,2.4,5.8,4.4L288.7,31.3L288.7,31.3z M309.5,31.8
				c-1.4-2.9-3.9-5.2-7-6.3v-1.8c1.5-0.1,4.3-0.5,6-2.2c0.2-0.2,0.3-0.5,0.2-0.8c-0.1-0.3-0.3-0.5-0.6-0.6c0,0-2.2-0.8-1.8-5.2
				c0.2-1.9,0.2-3.6-0.1-5.1c-0.3-1.7-0.9-3-1.7-3.9c-0.9-1-2.1-1.5-3.5-1.5c-0.1,0-0.1,0-0.2,0c-0.5-0.5-1.7-1.3-3.5-1.3
				c-0.8,0-1.7,0.2-2.6,0.5l0,0c-0.7,0.3-2,0.8-3.1,2.3c-1.3,1.7-1.9,4.3-1.8,7.6c0.1,3.3-0.5,4.9-0.9,5.7c-0.4,0.6-0.8,0.8-0.8,0.8
				c-0.3,0-0.6,0.1-0.7,0.4c-0.2,0.3-0.1,0.6,0.1,0.9c0.1,0.1,0.5,0.7,1.6,1.3c1.2,0.7,2.8,1,4.6,1.1v1.7c-3,1.1-5.5,3.4-6.9,6.4
				c-0.1,0.3-0.1,0.6,0,0.8c0.2,0.2,0.4,0.4,0.7,0.4h21.4c0.3,0,0.6-0.2,0.7-0.4C309.6,32.3,309.6,32,309.5,31.8z"/>
		</defs>
		<use xlink:href="#SVGID_73_"  style="overflow:visible;fill:#CE7357;"/>
		<clipPath id="SVGID_74_">
			<use xlink:href="#SVGID_73_"  style="overflow:visible;"/>
		</clipPath>
		<g class="st36">
			<defs>
				<rect id="SVGID_75_" x="-540.4" y="-2258" width="1920" height="2700"/>
			</defs>
			<use xlink:href="#SVGID_75_"  style="overflow:visible;fill:#CE7357;"/>
			<clipPath id="SVGID_76_">
				<use xlink:href="#SVGID_75_"  style="overflow:visible;"/>
			</clipPath>
		</g>
	</g>
</g>
<g>
	<g>
		<defs>
			<path id="SVGID_77_" d="M240.5,31c0,0.5-0.4,0.8-0.8,0.8h-2.2c-0.5,0-0.8-0.4-0.8-0.8V12.9h3.9L240.5,31L240.5,31z M237.3,11.1
				h2.5v0.6h-2.5V11.1z M241.1,11.7L241.1,11.7l-0.1-1.2c0-0.3-0.3-0.6-0.6-0.6h-3.7c-0.3,0-0.6,0.3-0.6,0.6v1.2H236
				c-0.3,0-0.6,0.3-0.6,0.6V31c0,1.1,0.9,2,2,2h2.2c1.1,0,2-0.9,2-2V12.3C241.7,11.9,241.4,11.7,241.1,11.7z"/>
		</defs>
		<use xlink:href="#SVGID_77_"  style="overflow:visible;fill:#CE7357;"/>
		<clipPath id="SVGID_78_">
			<use xlink:href="#SVGID_77_"  style="overflow:visible;"/>
		</clipPath>
		<g class="st38">
			<defs>
				<rect id="SVGID_79_" x="-557.4" y="-2258" width="1920" height="2700"/>
			</defs>
			<use xlink:href="#SVGID_79_"  style="overflow:visible;fill:#CE7357;"/>
			<clipPath id="SVGID_80_">
				<use xlink:href="#SVGID_79_"  style="overflow:visible;"/>
			</clipPath>
		</g>
	</g>
	<g>
		<defs>
			<path id="SVGID_81_" d="M247.4,31c0,0.5-0.4,0.8-0.8,0.8h-1.1c-0.5,0-0.8-0.4-0.8-0.8v-8.1h0.1h2.6h0.1L247.4,31L247.4,31z
				 M245.3,20.8h1.4v0.8h-1.4V20.8z M248,21.6L248,21.6l-0.1-1.4c0-0.3-0.3-0.6-0.6-0.6h-0.7v-6.3h0c0.3,0,0.6-0.3,0.6-0.6
				c0-0.3-0.3-0.6-0.6-0.6h0v-0.2h0.1c0.3,0,0.6-0.3,0.6-0.6c0-0.3-0.3-0.6-0.6-0.6h-0.1v-0.2h0.4c0.3,0,0.6-0.3,0.6-0.6
				c0-0.3-0.3-0.6-0.6-0.6h-0.4V9.1h0.7c0.3,0,0.6-0.3,0.6-0.6s-0.3-0.6-0.6-0.6h-0.7V7.7h0.4c0.3,0,0.6-0.3,0.6-0.6
				c0-0.3-0.3-0.6-0.6-0.6h-0.4V6.3h0.1c0.3,0,0.6-0.3,0.6-0.6c0-0.3-0.3-0.6-0.6-0.6h-0.1V4.9h0c0.3,0,0.6-0.3,0.6-0.6
				s-0.3-0.6-0.6-0.6h0V3.6c0-0.3-0.3-0.6-0.6-0.6s-0.6,0.3-0.6,0.6v0.1h0c-0.3,0-0.6,0.3-0.6,0.6s0.3,0.6,0.6,0.6h0v0.2h-0.1
				c-0.3,0-0.6,0.3-0.6,0.6c0,0.3,0.3,0.6,0.6,0.6h0.1v0.2H245c-0.3,0-0.6,0.3-0.6,0.6c0,0.3,0.3,0.6,0.6,0.6h0.4v0.2h-0.7
				c-0.3,0-0.6,0.3-0.6,0.6s0.3,0.6,0.6,0.6h0.7v0.2H245c-0.3,0-0.6,0.3-0.6,0.6c0,0.3,0.3,0.6,0.6,0.6h0.4v0.2h-0.1
				c-0.3,0-0.6,0.3-0.6,0.6c0,0.3,0.3,0.6,0.6,0.6h0.1v0.2h0c-0.3,0-0.6,0.3-0.6,0.6s0.3,0.6,0.6,0.6h0v6.3h-0.7
				c-0.3,0-0.6,0.3-0.6,0.6v1.4H244c-0.3,0-0.6,0.3-0.6,0.6V31c0,1.1,0.9,2,2,2h1.1c1.1,0,2-0.9,2-2v-8.7
				C248.6,21.9,248.3,21.6,248,21.6z"/>
		</defs>
		<use xlink:href="#SVGID_81_"  style="overflow:visible;fill:#CE7357;"/>
		<clipPath id="SVGID_82_">
			<use xlink:href="#SVGID_81_"  style="overflow:visible;"/>
		</clipPath>
		<g class="st40">
			<defs>
				<rect id="SVGID_83_" x="-557.4" y="-2258" width="1920" height="2700"/>
			</defs>
			<use xlink:href="#SVGID_83_"  style="overflow:visible;fill:#CE7357;"/>
			<clipPath id="SVGID_84_">
				<use xlink:href="#SVGID_83_"  style="overflow:visible;"/>
			</clipPath>
		</g>
	</g>
</g>
<g>
	<g>
		<defs>
			<path id="SVGID_85_" d="M195.1,30.7c0,0.5-0.4,1-1,1h-5c-0.5,0-1-0.4-1-1V21h7L195.1,30.7L195.1,30.7z M189.6,19.2h4.1v0.5h-4.1
				V19.2z M195.8,19.7H195v-1.1c0-0.4-0.3-0.7-0.7-0.7h-5.4c-0.4,0-0.7,0.3-0.7,0.7v1.1h-0.8c-0.4,0-0.7,0.3-0.7,0.7v10.3
				c0,1.3,1,2.3,2.3,2.3h5c1.3,0,2.3-1,2.3-2.3V20.4C196.4,20,196.1,19.7,195.8,19.7z"/>
		</defs>
		<use xlink:href="#SVGID_85_"  style="overflow:visible;fill:#CE7357;"/>
		<clipPath id="SVGID_86_">
			<use xlink:href="#SVGID_85_"  style="overflow:visible;"/>
		</clipPath>
		<g class="st42">
			<defs>
				<rect id="SVGID_87_" x="-576.2" y="-2258" width="1920" height="2700"/>
			</defs>
			<use xlink:href="#SVGID_87_"  style="overflow:visible;fill:#CE7357;"/>
			<clipPath id="SVGID_88_">
				<use xlink:href="#SVGID_87_"  style="overflow:visible;"/>
			</clipPath>
		</g>
	</g>
	<g>
		<defs>
			<path id="SVGID_89_" d="M183.9,30.7c0,0.5-0.4,1-1,1h-5c-0.5,0-1-0.4-1-1v-8.1h7L183.9,30.7L183.9,30.7z M178.4,12.2h4.1v9.1
				h-4.1V12.2z M179.1,6.9c0.8-1.3,1.7-2.4,2-2.6c0.3,0.1,0.5,1.1,0.5,1.7v4.8h-2.6V6.9z M184.5,21.3h-0.8v-9.7
				c0-0.4-0.3-0.7-0.7-0.7H183V6.1c0,0,0-0.7-0.2-1.4c-0.4-1.5-1.2-1.7-1.7-1.7c-0.6,0-1.3,0.5-2.2,1.8c-0.6,0.8-1,1.6-1,1.6
				c-0.1,0.1-0.1,0.2-0.1,0.3v4.1h-0.1c-0.4,0-0.7,0.3-0.7,0.7v9.7h-0.8c-0.4,0-0.7,0.3-0.7,0.7v8.8c0,1.3,1,2.3,2.3,2.3h5
				c1.3,0,2.3-1,2.3-2.3v-8.8C185.2,21.5,184.9,21.3,184.5,21.3z"/>
		</defs>
		<use xlink:href="#SVGID_89_"  style="overflow:visible;fill:#CE7357;"/>
		<clipPath id="SVGID_90_">
			<use xlink:href="#SVGID_89_"  style="overflow:visible;"/>
		</clipPath>
		<g class="st44">
			<defs>
				<rect id="SVGID_91_" x="-576.2" y="-2258" width="1920" height="2700"/>
			</defs>
			<use xlink:href="#SVGID_91_"  style="overflow:visible;fill:#CE7357;"/>
			<clipPath id="SVGID_92_">
				<use xlink:href="#SVGID_91_"  style="overflow:visible;"/>
			</clipPath>
		</g>
	</g>
</g>
<g>
	<g>
		<defs>
			<path id="SVGID_101_" d="M75.3,16.7C75.3,16.7,75.3,16.7,75.3,16.7C75.3,16.7,75.3,16.7,75.3,16.7C75.3,16.7,75.3,16.7,75.3,16.7
				c-0.1-0.1-0.3-0.2-0.5-0.2s-0.4,0.1-0.5,0.2c-0.3,0.3-0.3,0.8,0,1.1c0.1,0.1,0.3,0.2,0.5,0.2c0.2,0,0.4-0.1,0.5-0.2
				c0.1-0.1,0.2-0.3,0.2-0.5C75.5,17,75.4,16.9,75.3,16.7L75.3,16.7z"/>
		</defs>
		<use xlink:href="#SVGID_101_"  style="overflow:visible;fill:#CE7357;"/>
		<clipPath id="SVGID_94_">
			<use xlink:href="#SVGID_101_"  style="overflow:visible;"/>
		</clipPath>
		<g class="st47">
			<defs>
				<rect id="SVGID_103_" x="-596.7" y="-2258" width="1920" height="2700"/>
			</defs>
			<use xlink:href="#SVGID_103_"  style="overflow:visible;fill:#CE7357;"/>
			<clipPath id="SVGID_96_">
				<use xlink:href="#SVGID_103_"  style="overflow:visible;"/>
			</clipPath>
		</g>
	</g>
	<g>
		<defs>
			<path id="SVGID_105_" d="M84.8,10.1C84.8,10.1,84.8,10.1,84.8,10.1C84.8,10.1,84.8,10.1,84.8,10.1l-6.5,6.5c0,0,0,0,0,0
				c0,0,0,0,0,0l-2.2,2.2c0,0,0,0,0,0c0,0,0,0,0,0L74.9,20c-0.1,0.1-0.3,0.2-0.4,0.2c-0.1,0-0.1,0-0.2,0c-0.1,0-0.1-0.1-0.2-0.1
				c0,0,0,0-0.1,0l-2-2c0,0,0,0,0-0.1c0-0.1-0.1-0.1-0.1-0.2c0-0.1,0-0.1,0-0.2c0-0.2,0.1-0.3,0.2-0.4L83.3,5.9
				c0.2-0.2,0.6-0.2,0.8,0l2,2c0.2,0.2,0.2,0.6,0,0.8L84.8,10.1z M62.4,31.2c-0.4,0.4-1.1,0.4-1.6,0c-0.2-0.2-0.3-0.5-0.3-0.8
				s0.1-0.6,0.3-0.8l10.4-10.4l1.6,1.6L62.4,31.2z M88.7,13l-2.4-2.4l0.8-0.8c0.8-0.8,0.8-2.1,0-2.8l-2-2c-0.8-0.8-2.1-0.8-2.8,0
				l-0.8,0.8L79,3.2c-0.3-0.3-0.7-0.3-1,0c-0.3,0.3-0.3,0.7,0,1l2.5,2.5l-1.2,1.2l-2.5-2.5c-0.3-0.3-0.7-0.3-1,0
				c-0.3,0.3-0.3,0.7,0,1l2.5,2.5L77.1,10l-2.5-2.5c-0.3-0.3-0.7-0.3-1,0c-0.3,0.3-0.3,0.7,0,1l2.5,2.5L75,12.2l-2.5-2.5
				c-0.3-0.3-0.7-0.3-1,0c-0.3,0.3-0.3,0.7,0,1l2.5,2.5l-1.2,1.2l-2.5-2.5c-0.3-0.3-0.7-0.3-1,0c-0.3,0.3-0.3,0.7,0,1l2.5,2.5
				L71,16.1c-0.4,0.4-0.6,0.9-0.6,1.4c0,0.1,0,0.3,0,0.4L59.8,28.6c-0.5,0.5-0.7,1.1-0.7,1.8c0,0.7,0.3,1.3,0.7,1.8
				c0.5,0.5,1.1,0.7,1.8,0.7c0.7,0,1.3-0.2,1.8-0.7l10.7-10.7c0.6,0.1,1.3,0,1.8-0.5l0.8-0.8l2.4,2.4c0.3,0.3,0.7,0.3,1,0
				c0.3-0.3,0.3-0.7,0-1l-2.4-2.4l1.2-1.2l2.4,2.4c0.3,0.3,0.7,0.3,1,0c0.3-0.3,0.3-0.7,0-1l-2.4-2.4l1.2-1.2l2.4,2.4
				c0.3,0.3,0.7,0.3,1,0c0.3-0.3,0.3-0.7,0-1L82,14.9l1.2-1.2l2.4,2.4c0.3,0.3,0.7,0.3,1,0c0.3-0.3,0.3-0.7,0-1l-2.4-2.4l1.2-1.2
				l2.4,2.4c0.3,0.3,0.7,0.3,1,0C89,13.7,89,13.2,88.7,13z"/>
		</defs>
		<use xlink:href="#SVGID_105_"  style="overflow:visible;fill:#CE7357;"/>
		<clipPath id="SVGID_98_">
			<use xlink:href="#SVGID_105_"  style="overflow:visible;"/>
		</clipPath>
		<g class="st49">
			<defs>
				<rect id="SVGID_107_" x="-596.7" y="-2258" width="1920" height="2700"/>
			</defs>
			<use xlink:href="#SVGID_107_"  style="overflow:visible;fill:#CE7357;"/>
			<clipPath id="SVGID_100_">
				<use xlink:href="#SVGID_107_"  style="overflow:visible;"/>
			</clipPath>
		</g>
	</g>
	<g>
		<defs>
			<path id="SVGID_109_" d="M81.2,10c-0.2,0-0.4,0.1-0.5,0.2c-0.3,0.3-0.3,0.8,0,1.1c0.1,0.1,0.3,0.2,0.5,0.2c0.2,0,0.4-0.1,0.5-0.2
				c0.1-0.1,0.2-0.3,0.2-0.5c0-0.2-0.1-0.4-0.2-0.5C81.6,10.1,81.4,10,81.2,10z"/>
		</defs>
		<use xlink:href="#SVGID_109_"  style="overflow:visible;fill:#CE7357;"/>
		<clipPath id="SVGID_102_">
			<use xlink:href="#SVGID_109_"  style="overflow:visible;"/>
		</clipPath>
		<g class="st51">
			<defs>
				<rect id="SVGID_111_" x="-596.7" y="-2258" width="1920" height="2700"/>
			</defs>
			<use xlink:href="#SVGID_111_"  style="overflow:visible;fill:#CE7357;"/>
			<clipPath id="SVGID_104_">
				<use xlink:href="#SVGID_111_"  style="overflow:visible;"/>
			</clipPath>
		</g>
	</g>
	<g>
		<defs>
			<path id="SVGID_113_" d="M77.4,14.6C77.4,14.6,77.4,14.6,77.4,14.6C77.4,14.6,77.4,14.6,77.4,14.6L77.4,14.6
				c-0.1-0.1-0.3-0.2-0.5-0.2s-0.4,0.1-0.5,0.2c-0.3,0.3-0.3,0.8,0,1.1c0.1,0.1,0.3,0.2,0.5,0.2c0.2,0,0.4-0.1,0.5-0.2
				c0.1-0.1,0.2-0.3,0.2-0.5C77.7,14.9,77.6,14.7,77.4,14.6L77.4,14.6z"/>
		</defs>
		<use xlink:href="#SVGID_113_"  style="overflow:visible;fill:#CE7357;"/>
		<clipPath id="SVGID_106_">
			<use xlink:href="#SVGID_113_"  style="overflow:visible;"/>
		</clipPath>
		<g class="st53">
			<defs>
				<rect id="SVGID_115_" x="-596.7" y="-2258" width="1920" height="2700"/>
			</defs>
			<use xlink:href="#SVGID_115_"  style="overflow:visible;fill:#CE7357;"/>
			<clipPath id="SVGID_108_">
				<use xlink:href="#SVGID_115_"  style="overflow:visible;"/>
			</clipPath>
		</g>
	</g>
	<g>
		<defs>
			<path id="SVGID_117_" d="M83.4,7.9C83.4,7.9,83.4,7.9,83.4,7.9c-0.2,0-0.4,0.1-0.5,0.2c-0.3,0.3-0.3,0.8,0,1.1
				c0.1,0.1,0.3,0.2,0.5,0.2c0.2,0,0.4-0.1,0.5-0.2C84,9,84.1,8.8,84.1,8.6c0-0.2-0.1-0.4-0.2-0.5C83.8,7.9,83.6,7.9,83.4,7.9z"/>
		</defs>
		<use xlink:href="#SVGID_117_"  style="overflow:visible;fill:#CE7357;"/>
		<clipPath id="SVGID_110_">
			<use xlink:href="#SVGID_117_"  style="overflow:visible;"/>
		</clipPath>
		<g class="st55">
			<defs>
				<rect id="SVGID_119_" x="-596.7" y="-2258" width="1920" height="2700"/>
			</defs>
			<use xlink:href="#SVGID_119_"  style="overflow:visible;fill:#CE7357;"/>
			<clipPath id="SVGID_112_">
				<use xlink:href="#SVGID_119_"  style="overflow:visible;"/>
			</clipPath>
		</g>
	</g>
	<g>
		<defs>
			<path id="SVGID_121_" d="M79.6,12.4C79.6,12.4,79.6,12.4,79.6,12.4C79.6,12.4,79.6,12.4,79.6,12.4C79.6,12.4,79.6,12.4,79.6,12.4
				c-0.1-0.1-0.3-0.2-0.5-0.2c-0.2,0-0.4,0.1-0.5,0.2c-0.3,0.3-0.3,0.8,0,1.1c0.1,0.1,0.3,0.2,0.5,0.2c0.2,0,0.4-0.1,0.5-0.2
				c0.1-0.1,0.2-0.3,0.2-0.5C79.8,12.7,79.7,12.5,79.6,12.4L79.6,12.4z"/>
		</defs>
		<use xlink:href="#SVGID_121_"  style="overflow:visible;fill:#CE7357;"/>
		<clipPath id="SVGID_114_">
			<use xlink:href="#SVGID_121_"  style="overflow:visible;"/>
		</clipPath>
		<g class="st57">
			<defs>
				<rect id="SVGID_123_" x="-596.7" y="-2258" width="1920" height="2700"/>
			</defs>
			<use xlink:href="#SVGID_123_"  style="overflow:visible;fill:#CE7357;"/>
			<clipPath id="SVGID_116_">
				<use xlink:href="#SVGID_123_"  style="overflow:visible;"/>
			</clipPath>
		</g>
	</g>
</g>
<g>
	<g>
		<g class="st46">
			<g>
				<g>
					<defs>
						<path id="SVGID_125_" d="M31.6,12.5h-0.7c0-0.3,0-0.5-0.1-0.8c0-0.4-0.4-0.6-0.8-0.6c-0.4,0-0.6,0.4-0.6,0.7
							c0,0.2,0,0.4,0.1,0.6h-1.4C27.8,7.2,23.4,3,18,3S8.2,7.2,7.8,12.5H6.4c0-0.2,0-0.4,0.1-0.6c0-0.4-0.2-0.7-0.6-0.7
							c-0.4,0-0.7,0.2-0.8,0.6c0,0.3,0,0.5-0.1,0.8H4.4c-0.4,0-0.7,0.3-0.7,0.7c0,0.4,0.3,0.7,0.7,0.7h0.7
							c0.3,6.4,5.4,11.6,11.8,12.2v5.6h-6c-0.4,0-0.7,0.3-0.7,0.7s0.3,0.7,0.7,0.7h13.9c0.4,0,0.7-0.3,0.7-0.7
							c0-0.4-0.3-0.7-0.7-0.7h-5.7V26c6.4-0.5,11.5-5.7,11.8-12.2h0.7c0.4,0,0.7-0.3,0.7-0.7C32.3,12.8,32,12.5,31.6,12.5 M18,4.4
							c4.9,0,8.9,4,8.9,8.8c0,4.9-4,8.8-8.9,8.8c-4.9,0-8.9-4-8.9-8.8S13.1,4.4,18,4.4 M18,24.7c-6.2,0-11.2-4.8-11.6-10.9h1.4
							c0.4,5.3,4.8,9.5,10.2,9.5s9.8-4.2,10.2-9.5h1.4C29.2,19.9,24.2,24.7,18,24.7"/>
					</defs>
					<use xlink:href="#SVGID_125_"  style="overflow:visible;fill-rule:evenodd;clip-rule:evenodd;fill:#CE7357;"/>
					<clipPath id="SVGID_118_">
						<use xlink:href="#SVGID_125_"  style="overflow:visible;"/>
					</clipPath>
					<g class="st59">
						<defs>
							<rect id="SVGID_127_" x="3.6" y="3" width="29" height="30"/>
						</defs>
						<use xlink:href="#SVGID_127_"  style="overflow:visible;fill:#CE7357;"/>
						<clipPath id="SVGID_120_">
							<use xlink:href="#SVGID_127_"  style="overflow:visible;"/>
						</clipPath>
						<rect x="-1.3" y="-2" class="st60" width="38.6" height="40"/>
					</g>
				</g>
			</g>
		</g>
	</g>
</g>
<g>
	<g>
		<defs>
			<path id="SVGID_129_" d="M-25.1,17.8L-38,30.6l-12.9-12.9c-1.4-1.4-2.2-3.3-2.2-5.3s0.8-3.9,2.2-5.3c1.4-1.4,3.3-2.2,5.3-2.2
				c2,0,3.9,0.8,5.3,2.2l1.6,1.6c0.4,0.4,1,0.4,1.4,0l1.6-1.6c1.4-1.4,3.3-2.2,5.3-2.2s3.9,0.8,5.3,2.2c1.4,1.4,2.2,3.3,2.2,5.3
				C-22.9,14.5-23.7,16.4-25.1,17.8z M-23.7,5.8c-1.8-1.8-4.1-2.8-6.7-2.8s-4.9,1-6.7,2.8L-38,6.8l-0.9-0.9C-40.7,4-43.1,3-45.6,3
				c-2.5,0-4.9,1-6.6,2.8C-54,7.6-55,9.9-55,12.5c0,2.5,1,4.9,2.8,6.7l13.5,13.5c0.2,0.2,0.4,0.3,0.7,0.3c0.2,0,0.5-0.1,0.7-0.3
				l13.6-13.5C-22,17.4-21,15-21,12.5C-21,10-22,7.6-23.7,5.8z"/>
		</defs>
		<use xlink:href="#SVGID_129_"  style="overflow:visible;fill:#CE7357;"/>
		<clipPath id="SVGID_122_">
			<use xlink:href="#SVGID_129_"  style="overflow:visible;"/>
		</clipPath>
		<g class="st61">
			<defs>
				<rect id="SVGID_131_" x="-607.1" y="-2258" width="1920" height="2700"/>
			</defs>
			<use xlink:href="#SVGID_131_"  style="overflow:visible;fill:#CE7357;"/>
			<clipPath id="SVGID_124_">
				<use xlink:href="#SVGID_131_"  style="overflow:visible;"/>
			</clipPath>
		</g>
	</g>
	<g>
		<defs>
			<path id="SVGID_133_" d="M-37.9,7.7c-4.7-3.7-8.3-4.8-10.9-3.3c-4,2.2-7.3,8.7-3.4,13.4c2.6,3.1,7.4,7.8,14.3,14L-23,16.7
				c1.4-4.6,1.1-7.9-0.8-9.9c-1.9-1.9-4.2-2.9-7.2-2.9l-5,1.8L-37.9,7.7z"/>
		</defs>
		<use xlink:href="#SVGID_133_"  style="overflow:visible;fill-rule:evenodd;clip-rule:evenodd;fill:#CE7357;"/>
		<clipPath id="SVGID_126_">
			<use xlink:href="#SVGID_133_"  style="overflow:visible;"/>
		</clipPath>
		<g class="st63">
			<defs>
				<rect id="SVGID_135_" x="-607.1" y="-2258" width="1920" height="2700"/>
			</defs>
			<use xlink:href="#SVGID_135_"  style="overflow:visible;fill:#CE7357;"/>
			<clipPath id="SVGID_128_">
				<use xlink:href="#SVGID_135_"  style="overflow:visible;"/>
			</clipPath>
		</g>
	</g>
</g>
<g>
	<g>
		<defs>
			<path id="SVGID_137_" d="M-81.1,17.8L-94,30.6l-12.9-12.9c-1.4-1.4-2.2-3.3-2.2-5.3s0.8-3.9,2.2-5.3c1.4-1.4,3.3-2.2,5.3-2.2
				c2,0,3.9,0.8,5.3,2.2l1.6,1.6c0.4,0.4,1,0.4,1.4,0l1.6-1.6c1.4-1.4,3.3-2.2,5.3-2.2c2,0,3.9,0.8,5.3,2.2c1.4,1.4,2.2,3.3,2.2,5.3
				C-78.9,14.5-79.7,16.4-81.1,17.8z M-79.7,5.8c-1.8-1.8-4.1-2.8-6.7-2.8c-2.5,0-4.9,1-6.7,2.8L-94,6.8l-0.9-0.9
				C-96.7,4-99.1,3-101.6,3c-2.5,0-4.9,1-6.6,2.8c-1.8,1.8-2.8,4.1-2.8,6.7c0,2.5,1,4.9,2.8,6.7l13.5,13.5c0.2,0.2,0.4,0.3,0.7,0.3
				c0.2,0,0.5-0.1,0.7-0.3l13.6-13.5C-78,17.4-77,15-77,12.5C-77,10-78,7.6-79.7,5.8z"/>
		</defs>
		<use xlink:href="#SVGID_137_"  style="overflow:visible;fill:#CE7357;"/>
		<clipPath id="SVGID_130_">
			<use xlink:href="#SVGID_137_"  style="overflow:visible;"/>
		</clipPath>
		<g class="st65">
			<defs>
				<rect id="SVGID_139_" x="-608.6" y="-2258" width="1920" height="2700"/>
			</defs>
			<use xlink:href="#SVGID_139_"  style="overflow:visible;fill:#CE7357;"/>
			<clipPath id="SVGID_132_">
				<use xlink:href="#SVGID_139_"  style="overflow:visible;"/>
			</clipPath>
		</g>
	</g>
</g>
<g>
	<g>
		<defs>
			<path id="SVGID_141_" d="M-140.5,27.5c-2.6,2.5-5.9,4-9.5,4c-2.4,0-4.8-0.6-6.8-1.9c-0.1-0.1-0.3-0.1-0.4-0.1
				c-0.2,0-0.4,0.1-0.5,0.2c-2,1.5-3.9,1.7-4.8,1.8c1-0.8,1.9-2,2.6-3.6c0.1-0.3,0.1-0.7-0.1-0.9c-4.7-5.3-4.5-13.4,0.6-18.5
				c2.6-2.5,5.9-4,9.5-4c3.6,0,7,1.4,9.5,4C-135.2,13.7-135.2,22.3-140.5,27.5z M-139.4,7.4C-142.2,4.6-146,3-150,3
				c-4,0-7.8,1.6-10.6,4.4c-5.5,5.5-5.9,14.2-1,20.1c-0.7,1.4-1.5,2.3-2.4,2.7c-0.5,0.3-0.9,0.9-0.8,1.5c0.1,0.6,0.6,1.1,1.2,1.2
				c0.3,0.1,0.7,0.1,1.1,0.1c1.8,0,3.8-0.6,5.4-1.7c2.2,1.2,4.6,1.8,7.1,1.8c4,0,7.8-1.6,10.6-4.4c2.8-2.8,4.4-6.6,4.4-10.6
				C-135,14-136.6,10.2-139.4,7.4z"/>
		</defs>
		<use xlink:href="#SVGID_141_"  style="overflow:visible;fill:#CE7357;"/>
		<clipPath id="SVGID_134_">
			<use xlink:href="#SVGID_141_"  style="overflow:visible;"/>
		</clipPath>
		<g class="st67">
			<defs>
				<rect id="SVGID_143_" x="-612.5" y="-2258" width="1920" height="2700"/>
			</defs>
			<use xlink:href="#SVGID_143_"  style="overflow:visible;fill:#CE7357;"/>
			<clipPath id="SVGID_136_">
				<use xlink:href="#SVGID_143_"  style="overflow:visible;"/>
			</clipPath>
		</g>
	</g>
	<g>
		<defs>
			<path id="SVGID_145_" d="M-143.1,12h-13.5c-0.5,0-0.9,0.4-0.9,0.8c0,0.5,0.4,0.8,0.9,0.8h13.5c0.5,0,0.9-0.4,0.9-0.8
				C-142.2,12.4-142.6,12-143.1,12z"/>
		</defs>
		<use xlink:href="#SVGID_145_"  style="overflow:visible;fill:#CE7357;"/>
		<clipPath id="SVGID_138_">
			<use xlink:href="#SVGID_145_"  style="overflow:visible;"/>
		</clipPath>
		<g class="st69">
			<defs>
				<rect id="SVGID_147_" x="-612.5" y="-2258" width="1920" height="2700"/>
			</defs>
			<use xlink:href="#SVGID_147_"  style="overflow:visible;fill:#CE7357;"/>
			<clipPath id="SVGID_140_">
				<use xlink:href="#SVGID_147_"  style="overflow:visible;"/>
			</clipPath>
		</g>
	</g>
	<g>
		<defs>
			<path id="SVGID_149_" d="M-143.1,16.5h-13.5c-0.5,0-0.9,0.4-0.9,0.8c0,0.5,0.4,0.8,0.9,0.8h13.5c0.5,0,0.9-0.4,0.9-0.8
				C-142.2,16.9-142.6,16.5-143.1,16.5z"/>
		</defs>
		<use xlink:href="#SVGID_149_"  style="overflow:visible;fill:#CE7357;"/>
		<clipPath id="SVGID_142_">
			<use xlink:href="#SVGID_149_"  style="overflow:visible;"/>
		</clipPath>
		<g class="st71">
			<defs>
				<rect id="SVGID_151_" x="-612.5" y="-2258" width="1920" height="2700"/>
			</defs>
			<use xlink:href="#SVGID_151_"  style="overflow:visible;fill:#CE7357;"/>
			<clipPath id="SVGID_144_">
				<use xlink:href="#SVGID_151_"  style="overflow:visible;"/>
			</clipPath>
		</g>
	</g>
	<g>
		<defs>
			<path id="SVGID_153_" d="M-143.1,21h-13.5c-0.5,0-0.9,0.4-0.9,0.8c0,0.5,0.4,0.8,0.9,0.8h13.5c0.5,0,0.9-0.4,0.9-0.8
				C-142.2,21.4-142.6,21-143.1,21z"/>
		</defs>
		<use xlink:href="#SVGID_153_"  style="overflow:visible;fill:#CE7357;"/>
		<clipPath id="SVGID_146_">
			<use xlink:href="#SVGID_153_"  style="overflow:visible;"/>
		</clipPath>
		<g class="st73">
			<defs>
				<rect id="SVGID_155_" x="-612.5" y="-2258" width="1920" height="2700"/>
			</defs>
			<use xlink:href="#SVGID_155_"  style="overflow:visible;fill:#CE7357;"/>
			<clipPath id="SVGID_148_">
				<use xlink:href="#SVGID_155_"  style="overflow:visible;"/>
			</clipPath>
		</g>
	</g>
</g>
<g>
	<g>
		<defs>
			<path id="SVGID_157_" d="M-208.2,31.4c-0.7,0-1.2-0.6-1.2-1.2c0-0.7,0.6-1.2,1.2-1.2c0.7,0,1.2,0.6,1.2,1.2
				C-207,30.9-207.5,31.4-208.2,31.4z M-208.2,27.4c-1.5,0-2.8,1.2-2.8,2.8c0,1.5,1.2,2.8,2.8,2.8c1.5,0,2.8-1.2,2.8-2.8
				C-205.4,28.7-206.7,27.4-208.2,27.4z"/>
		</defs>
		<use xlink:href="#SVGID_157_"  style="overflow:visible;fill:#CE7357;"/>
		<clipPath id="SVGID_150_">
			<use xlink:href="#SVGID_157_"  style="overflow:visible;"/>
		</clipPath>
		<g class="st75">
			<defs>
				<rect id="SVGID_159_" x="-616.6" y="-2258" width="1920" height="2700"/>
			</defs>
			<use xlink:href="#SVGID_159_"  style="overflow:visible;fill:#CE7357;"/>
			<clipPath id="SVGID_152_">
				<use xlink:href="#SVGID_159_"  style="overflow:visible;"/>
			</clipPath>
		</g>
	</g>
	<g>
		<g>
			<defs>
				<path id="SVGID_161_" d="M-198.2,31.4c-0.7,0-1.2-0.6-1.2-1.2c0-0.7,0.6-1.2,1.2-1.2c0.7,0,1.2,0.6,1.2,1.2
					C-197,30.9-197.5,31.4-198.2,31.4z M-198.2,27.4c-1.5,0-2.8,1.2-2.8,2.8c0,1.5,1.2,2.8,2.8,2.8c1.5,0,2.8-1.2,2.8-2.8
					C-195.4,28.7-196.7,27.4-198.2,27.4z"/>
			</defs>
			<use xlink:href="#SVGID_161_"  style="overflow:visible;fill:#CE7357;"/>
			<clipPath id="SVGID_154_">
				<use xlink:href="#SVGID_161_"  style="overflow:visible;"/>
			</clipPath>
			<g class="st77">
				<defs>
					<rect id="SVGID_163_" x="-616.6" y="-2258" width="1920" height="2700"/>
				</defs>
				<use xlink:href="#SVGID_163_"  style="overflow:visible;fill:#CE7357;"/>
				<clipPath id="SVGID_156_">
					<use xlink:href="#SVGID_163_"  style="overflow:visible;"/>
				</clipPath>
			</g>
		</g>
		<g>
			<defs>
				<path id="SVGID_165_" d="M-197.4,11.9h-11.7c-0.5,0-0.8,0.2-0.8,0.6c0,0.3,0.4,0.6,0.8,0.6h11.7c0.5,0,0.8-0.2,0.8-0.6
					C-196.6,12.1-196.9,11.9-197.4,11.9z"/>
			</defs>
			<use xlink:href="#SVGID_165_"  style="overflow:visible;fill:#CE7357;"/>
			<clipPath id="SVGID_158_">
				<use xlink:href="#SVGID_165_"  style="overflow:visible;"/>
			</clipPath>
			<g class="st79">
				<defs>
					<rect id="SVGID_167_" x="-616.6" y="-2258" width="1920" height="2700"/>
				</defs>
				<use xlink:href="#SVGID_167_"  style="overflow:visible;fill:#CE7357;"/>
				<clipPath id="SVGID_160_">
					<use xlink:href="#SVGID_167_"  style="overflow:visible;"/>
				</clipPath>
			</g>
		</g>
		<g>
			<defs>
				<path id="SVGID_169_" d="M-198.5,16.3h-10.6c-0.5,0-0.8,0.2-0.8,0.6c0,0.3,0.4,0.6,0.8,0.6h10.6c0.5,0,0.8-0.2,0.8-0.6
					C-197.7,16.6-198,16.3-198.5,16.3z"/>
			</defs>
			<use xlink:href="#SVGID_169_"  style="overflow:visible;fill:#CE7357;"/>
			<clipPath id="SVGID_162_">
				<use xlink:href="#SVGID_169_"  style="overflow:visible;"/>
			</clipPath>
			<g class="st81">
				<defs>
					<rect id="SVGID_171_" x="-616.6" y="-2258" width="1920" height="2700"/>
				</defs>
				<use xlink:href="#SVGID_171_"  style="overflow:visible;fill:#CE7357;"/>
				<clipPath id="SVGID_164_">
					<use xlink:href="#SVGID_171_"  style="overflow:visible;"/>
				</clipPath>
			</g>
		</g>
		<g>
			<defs>
				<path id="SVGID_173_" d="M-193.7,20.8h-19.9l-2.2-11h24.3L-193.7,20.8z M-190.2,8.8c-0.3-0.4-0.7-0.6-1.2-0.6h-24.6l-0.5-2.5
					c-0.1-0.5-0.4-0.9-0.9-1.2l-3.5-1.5c-0.4-0.2-0.9,0-1,0.4c-0.2,0.4,0,0.9,0.4,1.1l3.5,1.5l3.8,19c0.2,0.7,0.8,1.3,1.5,1.3h19
					c0.4,0,0.8-0.4,0.8-0.8c0-0.4-0.4-0.8-0.8-0.8h-19l-0.5-2.3h19.6c0.7,0,1.4-0.5,1.5-1.3l2.2-11C-189.8,9.7-189.9,9.2-190.2,8.8z
					"/>
			</defs>
			<use xlink:href="#SVGID_173_"  style="overflow:visible;fill:#CE7357;"/>
			<clipPath id="SVGID_166_">
				<use xlink:href="#SVGID_173_"  style="overflow:visible;"/>
			</clipPath>
			<g class="st83">
				<defs>
					<rect id="SVGID_175_" x="-616.6" y="-2258" width="1920" height="2700"/>
				</defs>
				<use xlink:href="#SVGID_175_"  style="overflow:visible;fill:#CE7357;"/>
				<clipPath id="SVGID_168_">
					<use xlink:href="#SVGID_175_"  style="overflow:visible;"/>
				</clipPath>
			</g>
		</g>
	</g>
</g>
<g>
	<g>
		<defs>
			<path id="SVGID_177_" d="M-245.1,14.9l-16.4-11.7c-0.3-0.2-0.7-0.2-1.1,0l-16.4,11.7c-0.4,0.3-0.5,0.8-0.2,1.2
				c0.3,0.4,0.9,0.5,1.3,0.2L-262,5l15.8,11.4c0.2,0.1,0.3,0.2,0.5,0.2c0.3,0,0.5-0.1,0.7-0.4C-244.6,15.7-244.7,15.2-245.1,14.9z"
				/>
		</defs>
		<use xlink:href="#SVGID_177_"  style="overflow:visible;fill:#CE7357;"/>
		<clipPath id="SVGID_170_">
			<use xlink:href="#SVGID_177_"  style="overflow:visible;"/>
		</clipPath>
		<g class="st85">
			<defs>
				<rect id="SVGID_179_" x="-619.2" y="-2258" width="1920" height="2700"/>
			</defs>
			<use xlink:href="#SVGID_179_"  style="overflow:visible;fill:#CE7357;"/>
			<clipPath id="SVGID_172_">
				<use xlink:href="#SVGID_179_"  style="overflow:visible;"/>
			</clipPath>
		</g>
	</g>
	<g>
		<defs>
			<path id="SVGID_181_" d="M-249.4,16.5c-0.5,0-0.9,0.4-0.9,0.9v13.9h-7.2v-7.6c0-2.4-2-4.4-4.5-4.4c-2.5,0-4.5,2-4.5,4.4v7.6h-7.2
				V17.4c0-0.5-0.4-0.9-0.9-0.9c-0.5,0-0.9,0.4-0.9,0.9v14.8c0,0.5,0.4,0.9,0.9,0.9h9c0.5,0,0.9-0.4,0.9-0.8c0,0,0,0,0-0.1v-8.4
				c0-1.4,1.2-2.6,2.7-2.6s2.7,1.2,2.7,2.6v8.4c0,0,0,0,0,0.1c0,0.5,0.4,0.8,0.9,0.8h9c0.5,0,0.9-0.4,0.9-0.9V17.4
				C-248.5,16.9-248.9,16.5-249.4,16.5z"/>
		</defs>
		<use xlink:href="#SVGID_181_"  style="overflow:visible;fill:#CE7357;"/>
		<clipPath id="SVGID_174_">
			<use xlink:href="#SVGID_181_"  style="overflow:visible;"/>
		</clipPath>
		<g class="st87">
			<defs>
				<rect id="SVGID_183_" x="-618.5" y="-2258" width="1920" height="2700"/>
			</defs>
			<use xlink:href="#SVGID_183_"  style="overflow:visible;fill:#CE7357;"/>
			<clipPath id="SVGID_176_">
				<use xlink:href="#SVGID_183_"  style="overflow:visible;"/>
			</clipPath>
		</g>
	</g>
</g>
</svg>
